<svg width="260" height="260" viewBox="0 0 260 260" fill="none" xmlns="http://www.w3.org/2000/svg">
<path d="M67.4917 36.25C60.8408 36.2481 54.309 38.0146 48.5658 41.3685C42.8227 44.7223 38.0749 49.5428 34.809 55.3359C31.5431 61.129 29.8767 67.6862 29.9805 74.3355C30.0844 80.9847 31.9547 87.4867 35.3999 93.175C26.843 94.8282 19.1287 99.4084 13.5814 106.129C8.03411 112.85 5 121.292 5 130.006C5 138.72 8.03411 147.162 13.5814 153.883C19.1287 160.604 26.843 165.184 35.3999 166.837M67.4917 36.25C67.4917 27.962 70.7845 20.0134 76.6458 14.1529C82.5071 8.2924 90.4567 5 98.7458 5C107.035 5 114.985 8.2924 120.846 14.1529C126.707 20.0134 130 27.962 130 36.25C130 27.962 133.293 20.0134 139.154 14.1529C145.015 8.2924 152.965 5 161.254 5C169.543 5 177.493 8.2924 183.354 14.1529C189.215 20.0134 192.508 27.962 192.508 36.25C199.159 36.2481 205.691 38.0146 211.434 41.3685C217.177 44.7223 221.925 49.5428 225.191 55.3359C228.457 61.129 230.123 67.6862 230.019 74.3355C229.916 80.9847 228.045 87.4867 224.6 93.175M67.4917 36.25C67.4917 46.475 72.4048 55.55 79.9933 61.25M35.3999 166.837C31.9579 172.526 30.0901 179.026 29.9879 185.674C29.8858 192.321 31.5528 198.876 34.8183 204.667C38.0838 210.458 42.8304 215.277 48.5717 218.631C54.313 221.984 60.8426 223.751 67.4917 223.75C67.4917 232.038 70.7845 239.987 76.6458 245.847C82.5071 251.708 90.4567 255 98.7458 255C107.035 255 114.985 251.708 120.846 245.847C126.707 239.987 130 232.038 130 223.75C130 232.038 133.293 239.987 139.154 245.847C145.015 251.708 152.965 255 161.254 255C169.543 255 177.493 251.708 183.354 245.847C189.215 239.987 192.508 232.038 192.508 223.75M35.3999 166.837C39.8865 159.411 46.8098 153.77 54.99 150.875M192.508 223.75C199.157 223.751 205.687 221.984 211.428 218.631C217.17 215.277 221.916 210.458 225.182 204.667C228.447 198.876 230.114 192.321 230.012 185.674C229.91 179.026 228.042 172.526 224.6 166.837C233.157 165.184 240.871 160.604 246.419 153.883C251.966 147.162 255 138.72 255 130.006C255 121.292 251.966 112.85 246.419 106.129C240.871 99.4084 233.157 94.8282 224.6 93.175M192.508 223.75C192.508 213.525 187.595 204.45 180.007 198.75M224.6 93.175C220.109 100.592 213.186 106.224 205.01 109.113" stroke="#37B7C3" stroke-width="10" stroke-linecap="round" stroke-linejoin="round"/>
<rect x="94.7888" y="115.916" width="70.4225" height="59.8592" rx="9" stroke="#37B7C3" stroke-width="10"/>
<path d="M151.127 117.676V102.711C151.127 91.5295 142.062 82.4648 130.88 82.4648V82.4648C119.698 82.4648 110.634 91.5295 110.634 102.711V117.676" stroke="#37B7C3" stroke-width="10"/>
</svg>
