<svg width="111" height="111" viewBox="0 0 111 111" fill="none" xmlns="http://www.w3.org/2000/svg">
<path d="M79.5332 31.9243L93.2665 15.4443M93.2665 15.4443L107 31.9243M93.2665 15.4443V86.8577" stroke="#071952" stroke-width="7" stroke-miterlimit="10" stroke-linecap="round" stroke-linejoin="round"/>
<path d="M68.3178 82.2799V100.591M76.3289 77.7021C76.3289 80.4488 74.4978 82.2799 71.7511 82.2799H64.8844C62.1377 82.2799 60.3066 80.4488 60.3066 77.7021V59.391C60.3066 56.6443 62.1377 54.8132 64.8844 54.8132H71.7511C74.4978 54.8132 76.3289 56.6443 76.3289 59.391V77.7021Z" stroke="#071952" stroke-width="7" stroke-miterlimit="10" stroke-linecap="round" stroke-linejoin="round"/>
<path d="M37.1888 58.9333V45.2M37.1888 88.6888V107M45.2 84.1111C45.2 86.8577 43.3688 88.6888 40.6222 88.6888H33.7555C31.0088 88.6888 29.1777 86.8577 29.1777 84.1111V63.5111C29.1777 60.7644 31.0088 58.9333 33.7555 58.9333H40.6222C43.3688 58.9333 45.2 60.7644 45.2 63.5111V84.1111Z" stroke="#071952" stroke-width="7" stroke-miterlimit="10" stroke-linecap="round" stroke-linejoin="round"/>
<path d="M12.0111 24.1422V4M12.0111 47.0311V60.7644M20.0222 42.4533C20.0222 45.2 18.1911 47.0311 15.4444 47.0311H8.57778C5.83111 47.0311 4 45.2 4 42.4533V28.72C4 25.9733 5.83111 24.1422 8.57778 24.1422H15.4444C18.1911 24.1422 20.0222 25.9733 20.0222 28.72V42.4533Z" stroke="#071952" stroke-width="7" stroke-miterlimit="10" stroke-linecap="round" stroke-linejoin="round"/>
</svg>
