<svg width="161" height="161" viewBox="0 0 161 161" fill="none" xmlns="http://www.w3.org/2000/svg">
<path d="M74.6675 57.5256C73.1948 57.5256 72.001 56.3317 72.001 54.8591C72.001 53.3864 73.1948 52.1925 74.6675 52.1925H85.7146C87.1873 52.1925 88.3811 53.3864 88.3811 54.8591C88.3811 56.3317 87.1873 57.5256 85.7146 57.5256H74.6675ZM80.191 108.19C76.824 108.19 73.6499 107.557 70.6687 106.291C67.6875 105.025 65.0831 103.303 62.8554 101.123C60.6277 98.944 58.865 96.3992 57.5673 93.4891C56.2697 90.579 55.6208 87.4796 55.6208 84.1909C55.6208 80.9022 56.2697 77.8019 57.5673 74.8901C58.865 71.9782 60.6277 69.4343 62.8554 67.2584C65.0831 65.0825 67.6884 63.3609 70.6714 62.0934C73.6544 60.8259 76.8276 60.1921 80.191 60.1921C83.0121 60.1921 85.7193 60.6365 88.3129 61.5254C90.9064 62.4142 93.3406 63.7031 95.6157 65.3919L97.5716 63.4814C98.6093 62.4679 100.266 62.4679 101.304 63.4814C102.376 64.5292 102.376 66.2546 101.304 67.3024L99.4377 69.125C101.167 71.3471 102.486 73.7248 103.396 76.258C104.306 78.7912 104.761 81.4355 104.761 84.1909C104.761 87.4796 104.112 90.5799 102.815 93.4918C101.517 96.4036 99.7544 98.9475 97.5267 101.123C95.299 103.299 92.6936 105.022 89.7106 106.291C86.7276 107.56 83.5544 108.193 80.191 108.19ZM80.191 102.857C85.4691 102.857 89.9736 101.035 93.7047 97.3903C97.4357 93.746 99.3012 89.3462 99.3012 84.1909C99.3012 79.0356 97.4357 74.6358 93.7047 70.9916C89.9736 67.3473 85.4691 65.5252 80.191 65.5252C74.913 65.5252 70.4085 67.3473 66.6774 70.9916C62.9464 74.6358 61.0809 79.0356 61.0809 84.1909C61.0809 89.3462 62.9464 93.746 66.6774 97.3903C70.4085 101.035 74.913 102.857 80.191 102.857Z" fill="#37B7C3"/>
<path d="M52.1879 132.379C52.1879 126.171 52.1839 121.71 51.7267 118.316C51.277 114.979 50.4201 112.959 48.9212 111.464L48.9174 111.459C47.427 109.961 45.4082 109.105 42.0683 108.656C38.6733 108.198 34.211 108.194 28.0032 108.194C21.7953 108.194 17.3345 108.198 13.9407 108.656C10.6029 109.105 8.58333 109.962 7.08782 111.461L7.08285 111.465C5.58561 112.955 4.72961 114.974 4.27979 118.314C3.8226 121.709 3.81862 126.171 3.81862 132.379C3.81862 138.587 3.82257 143.048 4.27979 146.441C4.70144 149.571 5.481 151.541 6.81187 153.007L7.08534 153.294L7.08907 153.299L7.37497 153.572C8.83705 154.901 10.8067 155.681 13.9382 156.102C17.3332 156.56 21.7955 156.564 28.0032 156.564C34.2112 156.564 38.6719 156.56 42.0658 156.102C45.4036 155.653 47.4232 154.796 48.9187 153.297L48.9236 153.293L49.1959 153.007C50.5256 151.545 51.3049 149.576 51.7267 146.444C52.1839 143.049 52.1879 138.587 52.1879 132.379ZM156.564 132.379C156.564 126.175 156.56 121.715 156.102 118.32C155.653 114.98 154.796 112.959 153.297 111.464L153.293 111.459C151.803 109.961 149.784 109.105 146.444 108.656C143.049 108.198 138.587 108.194 132.379 108.194C126.171 108.194 121.71 108.198 118.316 108.656C114.979 109.105 112.959 109.962 111.464 111.461L111.459 111.465C109.961 112.955 109.105 114.974 108.656 118.314C108.198 121.709 108.194 126.171 108.194 132.379C108.194 138.587 108.198 143.048 108.656 146.441C109.077 149.571 109.857 151.541 111.188 153.007L111.461 153.294L111.464 153.297L111.751 153.57C113.217 154.901 115.189 155.681 118.32 156.102C121.715 156.56 126.175 156.564 132.379 156.564C138.583 156.564 143.043 156.56 146.438 156.102C149.778 155.653 151.799 154.796 153.294 153.297L153.297 153.294L153.57 153.007C154.901 151.541 155.681 149.569 156.102 146.438C156.56 143.043 156.564 138.583 156.564 132.379ZM156.564 28.0032C156.564 21.7953 156.56 17.3345 156.102 13.9407C155.653 10.6029 154.796 8.58333 153.297 7.08782L153.293 7.08285C151.803 5.58561 149.784 4.72961 146.444 4.27979C143.049 3.8226 138.587 3.81862 132.379 3.81862C126.171 3.81862 121.71 3.82257 118.316 4.27979C114.979 4.72954 112.959 5.58643 111.464 7.08534L111.459 7.08907C109.961 8.57952 109.105 10.5983 108.656 13.9382C108.198 17.3332 108.194 21.7955 108.194 28.0032C108.194 34.2112 108.198 38.6719 108.656 42.0658C109.077 45.1951 109.857 47.1652 111.188 48.6315L111.461 48.9187L111.465 48.9236L111.751 49.1959C113.213 50.5256 115.182 51.3049 118.314 51.7267C121.709 52.1839 126.171 52.1879 132.379 52.1879C138.587 52.1879 143.048 52.1839 146.441 51.7267C149.779 51.277 151.799 50.4201 153.294 48.9212L153.299 48.9174L153.572 48.6315C154.901 47.1694 155.681 45.1998 156.102 42.0683C156.56 38.6733 156.564 34.211 156.564 28.0032ZM28.0032 7.16402e-07C34.1028 7.16402e-07 38.8688 -0.00353604 42.5779 0.495974C46.3394 1.00257 49.3 2.05782 51.6185 4.38421L52.0399 4.82797C54.0763 7.08085 55.0351 9.90271 55.5105 13.4311C55.9567 16.743 55.9984 20.8978 56.0028 26.0939H80.1911L80.3863 26.1039C81.3491 26.2016 82.1004 27.0146 82.1004 28.0032C82.1004 28.9918 81.3491 29.8049 80.3863 29.9026L80.1911 29.9126H56.0028C55.9984 35.1089 55.9567 39.265 55.5105 42.5779C55.0039 46.3394 53.9474 49.2988 51.621 51.6173L51.6223 51.6185C49.2995 53.9466 46.3389 55.0034 42.5754 55.5105C38.8674 56.0101 34.1029 56.0065 28.0032 56.0065C21.9037 56.0065 17.1377 56.01 13.4286 55.5105C9.66443 55.0036 6.70222 53.9472 4.38297 51.6173C2.05862 49.2954 1.00267 46.3361 0.495974 42.5754C-0.00358198 38.8674 7.16413e-07 34.1029 7.16413e-07 28.0032C7.16143e-07 21.9037 -0.00353646 17.1377 0.495974 13.4286C1.00293 9.66443 2.05933 6.70222 4.38918 4.38297C6.71121 2.05818 9.67008 1.00271 13.4311 0.495974C17.1391 -0.00358198 21.9036 7.16132e-07 28.0032 7.16402e-07ZM56.0065 132.379C56.0065 138.479 56.01 143.245 55.5105 146.954C55.0039 150.715 53.9474 153.675 51.621 155.993L51.6223 155.994C49.2995 158.322 46.3389 159.379 42.5754 159.886C38.8674 160.386 34.1029 160.382 28.0032 160.382C21.9037 160.382 17.1377 160.386 13.4286 159.886C9.66443 159.379 6.70222 158.323 4.38297 155.993C2.05862 153.671 1.00267 150.712 0.495974 146.951C-0.00358201 143.243 7.16413e-07 138.479 7.16413e-07 132.379C7.15063e-07 126.279 -0.00353642 121.513 0.495974 117.804C1.00293 114.04 2.05933 111.078 4.38918 108.759C6.71121 106.434 9.67008 105.378 13.4311 104.872C16.743 104.426 20.8978 104.383 26.0939 104.378V80.1911C26.0939 79.1366 26.9488 78.2818 28.0032 78.2818C29.0577 78.2818 29.9126 79.1366 29.9126 80.1911V104.378C35.109 104.383 39.265 104.426 42.5779 104.872C46.3394 105.378 49.3 106.434 51.6185 108.76L52.0399 109.204C54.0763 111.457 55.0351 114.278 55.5105 117.807C56.0101 121.515 56.0065 126.279 56.0065 132.379ZM160.382 132.379C160.382 138.474 160.386 143.238 159.886 146.947C159.38 150.71 158.323 153.67 155.997 155.993L155.998 155.994C153.675 158.323 150.712 159.379 146.947 159.886C143.238 160.386 138.474 160.382 132.379 160.382C126.284 160.382 121.52 160.386 117.811 159.886C114.046 159.379 111.083 158.323 108.76 155.994C106.435 153.672 105.378 150.712 104.872 146.951C104.426 143.639 104.384 139.484 104.379 134.288H80.1911C79.1366 134.288 78.2818 133.433 78.2818 132.379C78.2818 131.324 79.1366 130.47 80.1911 130.47H104.379C104.384 125.273 104.426 121.117 104.872 117.804C105.379 114.04 106.435 111.078 108.765 108.759C111.087 106.434 114.046 105.378 117.807 104.872C121.515 104.372 126.279 104.376 132.379 104.376C138.479 104.376 143.245 104.372 146.954 104.872C150.715 105.378 153.676 106.434 155.994 108.76L156.416 109.204C158.452 111.457 159.411 114.281 159.886 117.811C160.386 121.52 160.382 126.284 160.382 132.379ZM3.81862 28.0032C3.81862 34.2112 3.82257 38.6719 4.27979 42.0658C4.70144 45.1951 5.48101 47.1652 6.81187 48.6315L7.08534 48.9187L7.08907 48.9236L7.37497 49.1959C8.83705 50.5256 10.8067 51.3049 13.9382 51.7267C17.3332 52.1839 21.7955 52.1879 28.0032 52.1879C34.2112 52.1879 38.6719 52.1839 42.0658 51.7267C45.4036 51.277 47.4232 50.4201 48.9187 48.9212L48.9236 48.9174L49.1959 48.6315C50.5256 47.1694 51.3049 45.1998 51.7267 42.0683C52.1839 38.6733 52.1879 34.211 52.1879 28.0032C52.1879 21.7953 52.1839 17.3345 51.7267 13.9407C51.277 10.6029 50.4201 8.58333 48.9212 7.08782L48.9174 7.08285C47.427 5.58561 45.4082 4.72961 42.0683 4.27979C38.6733 3.8226 34.211 3.81862 28.0032 3.81862C21.7953 3.81862 17.3345 3.82257 13.9407 4.27979C10.6029 4.72954 8.58333 5.58643 7.08782 7.08534L7.08285 7.08907C5.58561 8.57952 4.72961 10.5983 4.27979 13.9382C3.8226 17.3332 3.81862 21.7955 3.81862 28.0032ZM160.382 28.0032C160.382 34.1028 160.386 38.8688 159.886 42.5779C159.38 46.3394 158.323 49.2988 155.997 51.6173L155.998 51.6185C153.675 53.9466 150.715 55.0034 146.951 55.5105C143.639 55.9567 139.484 55.9984 134.288 56.0028V80.1911C134.288 81.2456 133.433 82.1004 132.379 82.1004C131.324 82.1004 130.47 81.2456 130.47 80.1911V56.0028C125.273 55.9984 121.117 55.9567 117.804 55.5105C114.04 55.0036 111.078 53.9472 108.759 51.6173C106.434 49.2954 105.378 46.3361 104.872 42.5754C104.372 38.8674 104.376 34.1029 104.376 28.0032C104.376 21.9037 104.372 17.1377 104.872 13.4286C105.379 9.66443 106.435 6.70222 108.765 4.38297C111.087 2.05818 114.046 1.00271 117.807 0.495974C121.515 -0.0035819 126.279 7.15051e-07 132.379 7.16402e-07C138.479 7.16402e-07 143.245 -0.00353627 146.954 0.495974C150.715 1.00257 153.676 2.05781 155.994 4.38421L156.416 4.82797C158.452 7.08085 159.411 9.90271 159.886 13.4311C160.386 17.1391 160.382 21.9036 160.382 28.0032Z" fill="#37B7C3"/>
<path d="M77.0089 75.736C77.0089 75.0331 77.5788 74.4632 78.2818 74.4632C78.9848 74.4632 79.5547 75.0331 79.5547 75.736V87.1919C79.5547 87.8949 78.9848 88.4648 78.2818 88.4648C77.5788 88.4648 77.0089 87.8949 77.0089 87.1919V75.736Z" fill="#37B7C3"/>
<path d="M85.919 85.919C86.622 85.919 87.1919 86.4889 87.1919 87.1919C87.1919 87.8949 86.622 88.4648 85.919 88.4648H78.2818C77.5788 88.4648 77.0089 87.8949 77.0089 87.1919C77.0089 86.4889 77.5788 85.919 78.2818 85.919H85.919Z" fill="#37B7C3"/>
</svg>
