<svg width="129" height="222" viewBox="0 0 129 222" fill="none" xmlns="http://www.w3.org/2000/svg">
<path d="M61.1042 217.382C29.4663 217.382 3.81862 191.734 3.81862 160.096L3.81863 61.1042C3.81863 29.4663 29.4663 3.81862 61.1042 3.81862C92.7421 3.81869 118.39 29.4664 118.39 61.1042V95.4656H122.208V61.1042C122.208 27.3574 94.851 6.18316e-05 61.1042 0C27.3574 -1.47512e-06 5.80221e-06 27.3573 4.32708e-06 61.1042L0 160.096C-1.47512e-06 193.843 27.3573 221.201 61.1042 221.201C94.851 221.2 122.208 193.843 122.208 160.096V126.015H118.39V160.096C118.39 191.734 92.742 217.382 61.1042 217.382Z" fill="#37B7C3"/>
<path d="M114.559 120.287C114.034 120.287 113.584 120.109 113.211 119.753C112.837 119.397 112.65 118.969 112.649 118.468V109.376C112.649 108.876 112.837 108.448 113.211 108.093C113.585 107.737 114.034 107.559 114.559 107.558H115.513V105.74C115.513 104.482 115.979 103.41 116.91 102.524C117.841 101.638 118.967 101.194 120.287 101.194C121.607 101.193 122.733 101.636 123.664 102.524C124.596 103.411 125.061 104.483 125.06 105.74V107.558H126.015C126.54 107.558 126.989 107.736 127.364 108.093C127.738 108.449 127.925 108.877 127.924 109.376V118.468C127.924 118.968 127.737 119.397 127.364 119.753C126.99 120.109 126.54 120.287 126.015 120.287H114.559ZM114.559 118.468H126.015V109.376H114.559V118.468ZM117.423 107.558H123.151V105.74C123.151 104.982 122.872 104.338 122.315 103.807C121.758 103.277 121.082 103.012 120.287 103.012C119.491 103.012 118.815 103.277 118.258 103.807C117.701 104.338 117.423 104.982 117.423 105.74V107.558Z" fill="#37B7C3"/>
<path d="M112.013 109.376C112.013 108.696 112.277 108.103 112.772 107.631C113.267 107.161 113.873 106.922 114.558 106.921H114.877V105.739C114.877 104.303 115.418 103.066 116.472 102.062C117.525 101.061 118.809 100.558 120.287 100.557C121.765 100.556 123.049 101.059 124.103 102.062C125.157 103.067 125.698 104.304 125.696 105.739V106.921H126.015C126.7 106.921 127.308 107.16 127.802 107.631C128.298 108.103 128.561 108.696 128.56 109.376V118.468C128.56 119.148 128.298 119.741 127.803 120.213C127.309 120.685 126.701 120.922 126.015 120.922L114.559 120.923C113.873 120.923 113.265 120.684 112.771 120.213C112.276 119.742 112.014 119.149 112.013 118.469V109.376ZM126.651 108.74V119.105H113.922V108.74H126.651ZM115.195 117.832H125.378V110.013H115.195V117.832ZM122.514 105.739C122.514 105.159 122.309 104.681 121.877 104.269C121.442 103.855 120.925 103.649 120.287 103.649C119.648 103.649 119.131 103.855 118.697 104.269C118.264 104.681 118.059 105.159 118.059 105.739V106.921H122.514V105.739ZM116.15 108.194H114.56L114.426 108.201C114.123 108.227 113.871 108.342 113.649 108.554C113.396 108.794 113.286 109.057 113.286 109.376V118.467L113.291 118.585C113.316 118.854 113.43 119.082 113.65 119.292C113.903 119.533 114.194 119.65 114.559 119.65H126.016L126.149 119.645C126.453 119.62 126.703 119.503 126.925 119.292C127.177 119.052 127.287 118.788 127.287 118.468V109.375L127.283 109.258C127.258 108.992 127.146 108.764 126.925 108.554C126.671 108.312 126.379 108.194 126.015 108.194H124.424V105.739L124.406 105.343C124.321 104.437 123.933 103.659 123.225 102.985C122.415 102.213 121.448 101.829 120.287 101.83C119.125 101.831 118.159 102.215 117.349 102.985C116.541 103.754 116.15 104.66 116.15 105.739V108.194ZM123.787 108.194H116.786V105.739C116.786 104.805 117.138 103.995 117.819 103.346C118.499 102.699 119.334 102.376 120.287 102.376C121.239 102.376 122.074 102.699 122.754 103.346C123.435 103.995 123.787 104.805 123.787 105.739V108.194Z" fill="#37B7C3"/>
<path d="M90.7209 106.276C92.4513 106.191 94.093 105.465 95.3239 104.234C96.6368 102.921 97.3749 101.14 97.3749 99.283C97.3749 97.4258 96.6369 95.6451 95.3239 94.332C94.011 93.0189 92.2307 92.2809 90.3741 92.2809L89.9478 92.2934C87.9753 92.4117 86.2232 93.3463 85.0216 94.7708L84.773 95.0828L84.6052 95.2829C83.73 96.2311 82.2619 96.3815 81.2079 95.5899C80.154 94.7983 79.8886 93.3459 80.5553 92.2412L80.7008 92.0249L80.9121 91.7539C82.562 89.6824 84.8829 88.1601 87.5487 87.5213C87.3445 86.724 87.0313 85.9549 86.6127 85.2379C85.8158 83.8733 84.67 82.7446 83.2938 81.9687C81.9173 81.1927 80.3588 80.7967 78.779 80.8213C77.1993 80.846 75.6543 81.2906 74.3028 82.1091L74.0281 82.2533C73.3726 82.5481 72.6168 82.5538 71.951 82.2583C71.2852 81.9627 70.7823 81.3985 70.5613 80.7144L70.4842 80.4149C70.0913 78.3814 69.0035 76.5471 67.4064 75.2289C65.8094 73.9108 63.8025 73.1903 61.7319 73.1903C59.6616 73.1904 57.6556 73.9109 56.0587 75.2289C54.8707 76.2095 53.9654 77.4761 53.4172 78.8971C55.3909 80.5103 56.8979 82.6396 57.7567 85.0663L57.8313 85.3162C58.1369 86.5699 57.4493 87.8758 56.2066 88.3156C54.8813 88.7846 53.4264 88.0908 52.9573 86.7656L52.8206 86.4038C52.1001 84.6179 50.8188 83.1097 49.1648 82.1104L49.1636 82.1091C47.8121 81.2913 46.2667 80.8481 44.6874 80.8238C43.1082 80.7996 41.551 81.1954 40.1751 81.9711C38.7992 82.747 37.6542 83.875 36.8574 85.2391C36.0607 86.6033 35.6404 88.1552 35.6405 89.7352C35.6405 90.4103 35.372 91.0577 34.8947 91.5351C34.4173 92.0125 33.7699 92.2809 33.0948 92.2809C31.2381 92.2809 29.4579 93.0189 28.145 94.3319C26.832 95.6451 26.0939 97.4258 26.0939 99.283C26.0939 101.14 26.832 102.921 28.145 104.234C29.3759 105.465 31.0176 106.191 32.7479 106.276L33.0947 106.285L90.3741 106.285L90.7209 106.276ZM61.7319 149.563C58.4789 149.563 55.3271 148.43 52.8181 146.359C51.1292 144.965 49.8051 143.203 48.9299 141.227C47.5909 141.668 46.1873 141.907 44.7657 141.929C42.2838 141.967 39.8363 141.345 37.6741 140.126C35.512 138.906 33.7128 137.134 32.4608 134.991C31.6013 133.519 31.021 131.908 30.7417 130.24C28.4109 129.777 26.2488 128.635 24.5439 126.929C22.2764 124.661 21.0024 121.586 21.0024 118.379C21.0024 115.171 22.2764 112.096 24.5439 109.828C24.9021 109.469 25.2829 109.138 25.6788 108.831C25.2829 108.523 24.9021 108.192 24.5439 107.834C22.2764 105.566 21.0024 102.49 21.0024 99.283C21.0024 96.0758 22.2764 93.0001 24.5439 90.7321C26.2488 89.0269 28.4108 87.8831 30.7417 87.4206C31.0211 85.7527 31.6015 84.1423 32.4608 82.671C33.7128 80.5276 35.512 78.7552 37.6741 77.536C39.8363 76.3168 42.2838 75.6942 44.7657 75.7323C46.1872 75.7542 47.591 75.9925 48.9299 76.4334C49.8051 74.4576 51.1295 72.6958 52.8181 71.3021C55.3271 69.2314 58.4789 68.0989 61.7319 68.0988C64.9853 68.0988 68.1379 69.2312 70.647 71.3021C72.3358 72.696 73.6613 74.4574 74.5365 76.4334C75.8752 75.9922 77.2781 75.752 78.6995 75.7298C81.1822 75.6911 83.6305 76.3141 85.7935 77.5335C87.9565 78.7529 89.7571 80.5255 91.0093 82.6697C91.8688 84.1416 92.4505 85.7522 92.7297 87.4206C95.0597 87.8835 97.2206 89.0275 98.925 90.7321C101.193 93.0001 102.466 96.0759 102.466 99.283C102.466 102.49 101.193 105.566 98.925 107.834C98.567 108.192 98.187 108.523 97.7914 108.831C98.187 109.138 98.567 109.47 98.925 109.828C101.193 112.096 102.466 115.171 102.466 118.379C102.466 121.586 101.192 124.662 98.925 126.929C97.2207 128.634 95.0596 129.777 92.7297 130.24C92.4506 131.909 91.869 133.52 91.0093 134.992C89.7571 137.136 87.9565 138.909 85.7935 140.128C83.6305 141.347 81.1822 141.971 78.6995 141.932C77.278 141.91 75.8753 141.668 74.5365 141.227C73.6613 143.203 72.3361 144.965 70.647 146.359C68.1379 148.43 64.9853 149.563 61.7319 149.563ZM33.0947 111.377C31.2382 111.377 29.4579 112.114 28.145 113.428C26.832 114.741 26.0939 116.521 26.0939 118.379C26.0939 120.236 26.832 122.017 28.145 123.33C29.4579 124.643 31.2381 125.381 33.0947 125.381C35.2402 125.381 37.1597 124.417 38.4473 122.891L38.6959 122.579L38.8637 122.379C39.7389 121.431 41.207 121.28 42.2609 122.072C43.3149 122.863 43.5803 124.316 42.9135 125.42L42.7681 125.637L42.5568 125.908C40.9072 127.979 38.5866 129.5 35.9214 130.139C36.1257 130.936 36.4387 131.706 36.8574 132.422C37.6542 133.787 38.7992 134.915 40.1751 135.69C41.551 136.466 43.1082 136.862 44.6874 136.838C46.2667 136.813 47.8121 136.37 49.1636 135.552C49.8757 135.122 50.7534 135.066 51.5141 135.403C52.2749 135.741 52.8229 136.43 52.9809 137.247C53.3738 139.28 54.4616 141.115 56.0587 142.433C57.6556 143.751 59.6617 144.471 61.7319 144.471C63.8025 144.471 65.8094 143.751 67.4064 142.433C68.5953 141.451 69.5023 140.184 70.0504 138.762C68.0787 137.148 66.5718 135.02 65.7147 132.594L65.6401 132.344C65.3352 131.09 66.0243 129.784 67.2672 129.345C68.5928 128.876 70.0468 129.572 70.5153 130.897L70.652 131.259C71.371 133.044 72.6508 134.552 74.3028 135.552L74.5589 135.702C75.848 136.425 77.2981 136.817 78.779 136.84C80.3588 136.865 81.9173 136.469 83.2937 135.693C84.67 134.917 85.8158 133.788 86.6127 132.424C87.4093 131.059 87.8287 129.508 87.8284 127.928C87.8282 127.252 88.0967 126.604 88.5742 126.126C89.0516 125.649 89.6989 125.381 90.3741 125.381C92.2307 125.381 94.011 124.643 95.3239 123.33C96.6368 122.017 97.3749 120.236 97.3749 118.379C97.3749 116.521 96.6369 114.741 95.3239 113.428C94.011 112.115 92.2307 111.377 90.3741 111.377L33.0947 111.377Z" fill="#37B7C3"/>
</svg>
