<svg width="176" height="176" viewBox="0 0 176 176" fill="none" xmlns="http://www.w3.org/2000/svg">
<path d="M171.838 87.8284C171.838 41.4311 134.226 3.81862 87.8284 3.81862C41.4311 3.81862 3.81862 41.4311 3.81862 87.8284C3.81862 134.226 41.4311 171.838 87.8284 171.838V175.657C39.3221 175.657 0 136.335 0 87.8284C0 39.3221 39.3221 0 87.8284 0C136.335 0 175.657 39.3221 175.657 87.8284C175.657 136.335 136.335 175.657 87.8284 175.657V171.838C134.226 171.838 171.838 134.226 171.838 87.8284Z" fill="#37B7C3"/>
<path d="M157.836 87.8284C157.836 49.1639 126.493 17.8202 87.8284 17.8202C49.1639 17.8202 17.8202 49.1639 17.8202 87.8284C17.8202 126.493 49.1639 157.836 87.8284 157.836V161.655C47.055 161.655 14.0016 128.602 14.0016 87.8284C14.0016 47.055 47.055 14.0016 87.8284 14.0016C128.602 14.0016 161.655 47.055 161.655 87.8284C161.655 128.602 128.602 161.655 87.8284 161.655V157.836C126.493 157.836 157.836 126.493 157.836 87.8284Z" fill="#37B7C3"/>
<path d="M81.2421 111.102C79.4363 111.102 77.8992 110.466 76.6309 109.195C75.3625 107.927 74.7284 106.391 74.7284 104.588V96.7601C71.2619 94.5029 68.5479 91.5833 66.5862 88.0013C64.6246 84.4193 63.6437 80.5685 63.6437 76.4491C63.6437 69.7258 65.9937 64.0021 70.6936 59.278C75.3934 54.5539 81.105 52.1906 87.8284 52.1879C94.5517 52.1852 100.263 54.5351 104.963 59.2377C109.663 63.9403 112.013 69.6519 112.013 76.3725C112.013 80.543 111.032 84.4152 109.071 87.9892C107.109 91.5631 104.395 94.4868 100.928 96.7601V104.588C100.928 106.391 100.294 107.927 99.0258 109.195C97.7575 110.463 96.2204 111.098 94.4146 111.098L81.2421 111.102ZM81.2421 107.071H94.4187C95.1415 107.071 95.7354 106.837 96.2003 106.369C96.6652 105.905 96.8976 105.311 96.8976 104.588V94.6198L99.3161 92.8987C102.019 90.9639 104.14 88.5495 105.677 85.6554C107.214 82.7586 107.982 79.6643 107.982 76.3725C107.982 70.7966 106.017 66.0443 102.085 62.1157C98.1539 58.187 93.4016 56.2213 87.8284 56.2186C82.2551 56.216 77.5029 58.1816 73.5715 62.1157C69.6402 66.0497 67.6745 70.802 67.6745 76.3725C67.6745 79.6643 68.443 82.7586 69.9801 85.6554C71.5172 88.5521 73.6374 90.9666 76.3407 92.8987L78.7591 94.6198V104.588C78.7591 105.313 78.9916 105.907 79.4565 106.369C79.9213 106.837 80.5165 107.071 81.2421 107.071ZM80.4641 124.742C79.8918 124.742 79.4121 124.55 79.0252 124.165C78.6382 123.781 78.4461 123.301 78.4488 122.726V120.711H97.208V122.726C97.208 123.301 97.0158 123.781 96.6316 124.165C96.2473 124.55 95.7676 124.742 95.1926 124.742H80.4641Z" fill="#37B7C3"/>
<path d="M96.5719 121.347H79.0848V122.729C79.0829 123.144 79.2151 123.457 79.4739 123.714C79.7352 123.973 80.051 124.105 80.4646 124.105H95.1921C95.6093 124.105 95.9242 123.972 96.1816 123.715C96.4388 123.458 96.5718 123.144 96.5719 122.727V121.347ZM111.377 76.3725C111.377 69.8185 109.092 64.2689 104.512 59.6871C99.9336 55.1059 94.3846 52.8217 87.8284 52.8243C81.2727 52.827 75.7235 55.1241 71.1443 59.7269C66.5644 64.3305 64.2802 69.8929 64.2802 76.4496C64.2803 80.4628 65.2345 84.2081 67.1441 87.6954C69.0547 91.184 71.6964 94.0257 75.076 96.2264L75.3644 96.4153V104.588C75.3645 106.121 75.8637 107.425 76.8722 108.527L77.081 108.745L77.2998 108.954C78.4028 109.964 79.7063 110.465 81.2415 110.465L94.414 110.462L94.7185 110.454C96.2237 110.388 97.4993 109.821 98.5757 108.745C99.7239 107.597 100.292 106.223 100.292 104.588V96.4165L100.579 96.2276C103.96 94.0104 106.602 91.1639 108.513 87.6829C110.421 84.205 111.377 80.4385 111.377 76.3725ZM107.345 76.3725C107.345 70.9648 105.446 66.3749 101.635 62.566C97.8232 58.7571 93.2333 56.8582 87.8284 56.8555C82.4237 56.8529 77.8335 58.7518 74.0219 62.566C70.2101 66.3805 68.3114 70.9705 68.3114 76.3725C68.3114 79.5607 69.0545 82.5527 70.5426 85.3572C72.0328 88.1655 74.0866 90.5049 76.7106 92.3804L79.1283 94.1008L79.3956 94.2922V104.588C79.3956 105.092 79.5322 105.48 79.7884 105.79L79.9052 105.918L79.9077 105.921L80.037 106.039C80.3494 106.297 80.7388 106.434 81.2415 106.434H94.419C94.9902 106.434 95.4158 106.256 95.749 105.921L95.7503 105.92L95.8684 105.79C96.1254 105.478 96.2611 105.089 96.2612 104.588V94.2922L96.5284 94.1008L98.9474 92.3804C101.571 90.5023 103.624 88.1624 105.114 85.3572L105.385 84.8289C106.693 82.1777 107.345 79.3613 107.345 76.3725ZM97.8448 122.727C97.8447 123.459 97.5925 124.104 97.0816 124.615C96.5704 125.126 95.9251 125.378 95.1921 125.378H80.4646C79.7335 125.378 79.089 125.126 78.5764 124.617C78.0612 124.106 77.8085 123.458 77.8119 122.723V120.074H97.8448V122.727ZM108.618 76.3725C108.618 79.5556 107.921 82.5643 106.527 85.3908L106.239 85.9539C104.655 88.9359 102.469 91.4248 99.687 93.4158L99.6845 93.4171L97.534 94.9473V104.588C97.5339 105.461 97.246 106.221 96.6502 106.817L96.6515 106.818C96.0551 107.418 95.2931 107.707 94.419 107.707H81.2415C80.3655 107.707 79.602 107.418 79.0052 106.818C78.409 106.224 78.1228 105.462 78.1227 104.588V94.9473L75.9722 93.4171L75.971 93.4158C73.1886 91.4273 71.0015 88.9388 69.4177 85.9539C67.8317 82.9648 67.0385 79.7679 67.0385 76.3725C67.0385 70.6336 69.0711 65.7197 73.1219 61.6661C77.1729 57.6124 82.0868 55.5799 87.8284 55.5826C93.5697 55.5854 98.4838 57.6178 102.535 61.6661C106.586 65.7145 108.618 70.6284 108.618 76.3725ZM112.649 76.3725C112.649 80.6475 111.643 84.6257 109.629 88.2957C107.671 91.8622 104.979 94.7951 101.565 97.0965V104.588C101.565 106.559 100.864 108.257 99.4757 109.645C98.174 110.947 96.5994 111.644 94.7819 111.726L94.4152 111.735L81.2427 111.738C79.2692 111.738 77.5682 111.036 76.1798 109.645C74.7923 108.257 74.0916 106.558 74.0915 104.588V97.0977C70.677 94.8111 67.9853 91.8811 66.0279 88.3069C64.0146 84.6305 63.0074 80.6747 63.0073 76.4496C63.0073 69.5599 65.4224 63.6739 70.2418 58.8294C75.0623 53.9842 80.9375 51.5542 87.8284 51.5514C94.7183 51.5487 100.593 53.9638 105.414 58.7872C110.234 63.6105 112.649 69.4852 112.649 76.3725Z" fill="#37B7C3"/>
<path d="M173.111 78.9182L173.242 78.9245C173.883 78.9898 174.384 79.5322 174.384 80.1911C174.384 80.8501 173.883 81.3924 173.242 81.4578L173.111 81.464H159.109C158.406 81.464 157.836 80.8941 157.836 80.1911C157.836 79.4881 158.406 78.9182 159.109 78.9182H173.111Z" fill="#37B7C3"/>
<path d="M173.111 86.5555L173.242 86.5617C173.883 86.627 174.384 87.1694 174.384 87.8284C174.384 88.4873 173.883 89.0297 173.242 89.095L173.111 89.1012H159.109C158.406 89.1012 157.836 88.5313 157.836 87.8284C157.836 87.1254 158.406 86.5555 159.109 86.5555H173.111Z" fill="#37B7C3"/>
<path d="M173.111 94.1927L173.242 94.199C173.883 94.2643 174.384 94.8067 174.384 95.4656C174.384 96.1245 173.883 96.6669 173.242 96.7323L173.111 96.7385H159.109C158.406 96.7385 157.836 96.1686 157.836 95.4656C157.836 94.7626 158.406 94.1927 159.109 94.1927H173.111Z" fill="#37B7C3"/>
<path d="M16.5474 78.9182L16.6779 78.9245C17.3196 78.9898 17.8202 79.5322 17.8202 80.1911C17.8202 80.8501 17.3196 81.3924 16.6779 81.4578L16.5474 81.464H2.54575C1.84276 81.464 1.27287 80.8941 1.27287 80.1911C1.27287 79.4881 1.84276 78.9182 2.54575 78.9182H16.5474Z" fill="#37B7C3"/>
<path d="M16.5474 86.5555L16.6779 86.5617C17.3196 86.627 17.8202 87.1694 17.8202 87.8284C17.8202 88.4873 17.3196 89.0297 16.6779 89.095L16.5474 89.1012H2.54575C1.84276 89.1012 1.27287 88.5313 1.27287 87.8284C1.27287 87.1254 1.84276 86.5555 2.54575 86.5555H16.5474Z" fill="#37B7C3"/>
<path d="M16.5474 94.1927L16.6779 94.199C17.3196 94.2643 17.8202 94.8067 17.8202 95.4656C17.8202 96.1245 17.3196 96.6669 16.6779 96.7323L16.5474 96.7385H2.54575C1.84276 96.7385 1.27287 96.1686 1.27287 95.4656C1.27287 94.7626 1.84276 94.1927 2.54575 94.1927H16.5474Z" fill="#37B7C3"/>
</svg>
