<svg width="148" height="27" viewBox="0 0 148 27" fill="none" xmlns="http://www.w3.org/2000/svg">
<path d="M12.0015 4.40032L11.9995 4.31771C11.9793 3.90595 11.8085 3.51525 11.5187 3.2223C11.2289 2.92936 10.8423 2.75662 10.4348 2.73618L10.3531 2.73418C9.91582 2.73418 9.49647 2.90982 9.18733 3.2223C8.87821 3.53478 8.70449 3.95849 8.70449 4.40032L8.70532 4.45122C8.72028 4.95751 8.95776 5.40719 9.32732 5.70466L9.36462 5.73386L9.41926 5.77742C9.96885 6.2405 10.0684 7.06315 9.63386 7.64799C9.19932 8.23282 8.39013 8.3653 7.79708 7.96072L7.74046 7.92L7.64274 7.84357C7.05558 7.37079 6.59102 6.74581 6.30779 6.02724C6.27726 6.04341 6.24685 6.06002 6.217 6.07764C5.87268 6.28093 5.58807 6.57314 5.39229 6.92422C5.19651 7.27532 5.09653 7.67274 5.10275 8.0757C5.10898 8.47865 5.22125 8.87276 5.42778 9.2175C5.65687 9.59995 5.68641 10.0715 5.50702 10.4801C5.32759 10.8888 4.96176 11.1831 4.52747 11.268C4.01433 11.3682 3.55172 11.6459 3.2191 12.0533C2.88648 12.4607 2.70457 12.9725 2.70457 13.5007C2.70458 14.0288 2.88648 14.5406 3.2191 14.948C3.38659 15.1532 3.58714 15.3253 3.81039 15.4585C4.33641 14.9143 4.98185 14.4946 5.70082 14.2374C6.40488 13.9856 7.17768 14.3584 7.42682 15.0702C7.67592 15.7819 7.3071 16.563 6.60311 16.8149C6.14327 16.9794 5.74963 17.2903 5.48061 17.6994L5.42844 17.7825C5.22212 18.1272 5.10972 18.522 5.10358 18.9248C5.09745 19.3276 5.19736 19.725 5.39312 20.0759C5.58887 20.4269 5.87345 20.7189 6.21766 20.9222C6.56188 21.1254 6.95339 21.2326 7.35205 21.2326L7.41923 21.2343C7.75347 21.251 8.07072 21.3926 8.30848 21.6329C8.56209 21.8893 8.70449 22.2371 8.70449 22.5997C8.70449 23.0415 8.87821 23.4652 9.18733 23.7777C9.49647 24.0902 9.91582 24.2658 10.3531 24.2658C10.7903 24.2658 11.2095 24.0902 11.5187 23.7777C11.8278 23.4652 12.0015 23.0415 12.0015 22.5997C12.0015 21.8447 12.6069 21.2326 13.3538 21.2326C14.0773 21.2326 14.668 21.807 14.7043 22.5293L14.7061 22.5997C14.7061 23.0415 14.8798 23.4652 15.1889 23.7777C15.498 24.0902 15.9173 24.2658 16.3545 24.2658C16.7918 24.2658 17.2111 24.0902 17.5202 23.7777C17.8294 23.4652 18.0031 23.0415 18.0031 22.5997C18.0031 22.0727 17.7622 21.6027 17.3803 21.2953L17.343 21.2661L17.2883 21.2226C16.7387 20.7595 16.6392 19.9369 17.0737 19.352C17.5083 18.7672 18.3174 18.6347 18.9105 19.0393L18.9671 19.08L19.0648 19.1564C19.6519 19.6291 20.1164 20.254 20.3996 20.9724C20.43 20.9563 20.4602 20.9397 20.4899 20.9222C20.8341 20.7189 21.1187 20.4269 21.3145 20.0759C21.5102 19.725 21.6101 19.3276 21.604 18.9248C21.5979 18.522 21.486 18.128 21.2796 17.7833C21.0507 17.4008 21.0211 16.9293 21.2006 16.5207C21.38 16.1122 21.7458 15.8182 22.1799 15.7334C22.6931 15.6331 23.1558 15.3554 23.4885 14.948C23.8211 14.5406 24.003 14.0288 24.003 13.5007C24.003 12.9725 23.8211 12.4607 23.4885 12.0533C23.3207 11.8478 23.1199 11.6753 22.8962 11.542C22.37 12.0856 21.7249 12.5049 21.0061 12.7616L20.9399 12.7834C20.2541 12.9895 19.5216 12.6176 19.2806 11.928C19.0318 11.2161 19.4011 10.4351 20.1053 10.1836L20.1963 10.1489C20.6468 9.96546 21.0274 9.63895 21.2798 9.2175L21.3174 9.15225C21.5 8.82342 21.599 8.45348 21.6048 8.0757C21.6111 7.67275 21.5111 7.27532 21.3153 6.92422C21.1195 6.57314 20.8349 6.28093 20.4906 6.07764C20.1678 5.88706 19.8033 5.781 19.4305 5.76857L19.3557 5.76741C18.997 5.7675 18.6529 5.62344 18.3993 5.36706C18.1456 5.11067 18.0031 4.76294 18.0031 4.40032C18.0031 3.95849 17.8294 3.53478 17.5202 3.2223C17.2111 2.90982 16.7918 2.73418 16.3545 2.73418C15.9173 2.7342 15.498 2.90984 15.1889 3.2223C14.8798 3.53478 14.7061 3.95849 14.7061 4.40032L14.7043 4.47074C14.668 5.19303 14.0773 5.76741 13.3538 5.76741C12.6303 5.76741 12.0396 5.19303 12.0033 4.47074L12.0015 4.40032ZM26.7076 13.5007C26.7076 14.6641 26.3069 15.7912 25.5744 16.6884C25.1845 17.1659 24.7136 17.5623 24.1881 17.8621C24.2623 18.1959 24.303 18.5379 24.3082 18.8829C24.3217 19.7705 24.1015 20.6456 23.6702 21.4188C23.2389 22.1921 22.6121 22.8355 21.8539 23.2832C21.4407 23.5272 20.9965 23.708 20.5358 23.8223C20.3334 24.5297 19.957 25.1811 19.4326 25.7112C18.6163 26.5364 17.5089 27 16.3545 27C15.2361 27 14.162 26.5649 13.3538 25.7874C12.5456 26.5649 11.4715 27 10.3531 27C9.19864 27 8.09133 26.5364 7.27496 25.7112C6.75059 25.1811 6.37405 24.5297 6.17161 23.8223C5.71094 23.708 5.2668 23.5272 4.85366 23.2832C4.09544 22.8355 3.46864 22.1921 3.03735 21.4188C2.60608 20.6456 2.38586 19.7705 2.39934 18.8829C2.40459 18.538 2.44514 18.1959 2.51935 17.8621C1.99389 17.5623 1.52302 17.1659 1.13323 16.6884C0.400679 15.7912 1.40695e-05 14.6641 0 13.5007C0 12.3372 0.400655 11.21 1.13323 10.3127C1.52291 9.83545 1.99357 9.43898 2.51886 9.13923C2.44455 8.80541 2.40385 8.46341 2.39852 8.11842C2.3848 7.23059 2.60502 6.355 3.03636 5.5815C3.4677 4.80802 4.0947 4.16438 4.85316 3.71661C5.26647 3.4726 5.71076 3.29164 6.17161 3.17741C6.37407 2.47009 6.75067 1.8188 7.27496 1.28882C8.09133 0.463622 9.19864 0 10.3531 0L10.461 0.00133505C11.5404 0.0283913 12.5716 0.46013 13.3538 1.21256C14.162 0.43508 15.2361 1.80604e-05 16.3545 0C17.5089 0 18.6163 0.463622 19.4326 1.28882C19.9569 1.81879 20.3333 2.47011 20.5358 3.17741C20.9967 3.29164 21.4411 3.47257 21.8544 3.71661C22.6129 4.16438 23.2399 4.80802 23.6712 5.5815C24.1026 6.355 24.3228 7.23059 24.3091 8.11842C24.3037 8.46342 24.2629 8.8054 24.1886 9.13923C24.7139 9.43899 25.1846 9.83541 25.5744 10.3127C26.3069 11.21 26.7076 12.3372 26.7076 13.5007Z" fill="#EBF4F6"/>
<path d="M87.8456 20.5063H85.6587V14.3651C85.6587 13.589 85.5143 13.0514 85.2255 12.7524C84.9367 12.4533 84.5177 12.3038 83.9683 12.3038C83.1583 12.3038 82.4963 12.6349 81.9821 13.2971C81.475 13.9593 81.2215 14.8742 81.2215 16.0419V20.5063H79.0346V10.5522H81.2215V13.0514C81.4398 12.1899 81.8448 11.5206 82.4364 11.0435C83.028 10.5593 83.757 10.3172 84.6233 10.3172C85.6305 10.3172 86.4193 10.6483 86.9898 11.3105C87.5603 11.9727 87.8456 12.9909 87.8456 14.3651V20.5063Z" fill="#EBF4F6"/>
<path d="M72.9599 9.25989H70.2976V6.56843H72.9599V9.25989ZM74.9672 20.5063H68.3537V18.5198H70.53V12.5494H68.3537V10.5522H72.7169V18.5198H74.9672V20.5063Z" fill="#EBF4F6"/>
<path d="M54.852 17.644C54.852 17.0601 55.0069 16.551 55.3168 16.1167C55.6267 15.6752 56.0317 15.3085 56.5318 15.0166C57.0389 14.7247 57.6164 14.5075 58.2644 14.3651C58.9194 14.2156 59.585 14.1408 60.2611 14.1408C60.6344 14.1408 60.9548 14.1479 61.2225 14.1622C61.4901 14.1764 61.7613 14.1978 62.036 14.2263V13.8311C62.036 13.3113 61.8352 12.9233 61.4338 12.6669C61.0394 12.4106 60.5182 12.2824 59.8702 12.2824C59.2786 12.2824 58.6764 12.3679 58.0636 12.5388C57.4509 12.7025 56.8698 12.9446 56.3205 13.265L55.433 11.5348C56.081 11.1574 56.7747 10.8619 57.5143 10.6483C58.2608 10.4276 59.0462 10.3172 59.8702 10.3172C60.4055 10.3172 60.9302 10.3778 61.4443 10.4988C61.9655 10.6199 62.4304 10.8192 62.8389 11.0969C63.2544 11.3746 63.5855 11.7377 63.832 12.1863C64.0785 12.6278 64.2017 13.176 64.2017 13.8311V20.5063H62.036V19.0431C61.6908 19.5843 61.1802 20.0044 60.5041 20.3034C59.835 20.6025 59.1131 20.752 58.3383 20.752C57.8594 20.752 57.4051 20.6843 56.9755 20.5491C56.5529 20.4209 56.1866 20.2251 55.8767 19.9616C55.5668 19.6982 55.3168 19.3742 55.1266 18.9897C54.9435 18.5981 54.852 18.1495 54.852 17.644ZM58.8982 18.7761C59.3279 18.7761 59.7293 18.7227 60.1026 18.6159C60.483 18.502 60.8175 18.3489 61.1063 18.1566C61.395 17.9573 61.6204 17.7188 61.7824 17.4411C61.9515 17.1634 62.036 16.8572 62.036 16.5225V16.1487C61.6908 16.0918 61.3669 16.0597 61.064 16.0526C60.7612 16.0455 60.4935 16.0419 60.2611 16.0419C59.1905 16.0419 58.3806 16.1843 57.8312 16.4691C57.2889 16.754 57.0177 17.1064 57.0177 17.5265C57.0177 18.3596 57.6446 18.7761 58.8982 18.7761Z" fill="#EBF4F6"/>
<path d="M52.6862 12.9126C52.4256 12.7844 52.158 12.6883 51.8833 12.6242C51.6156 12.553 51.3057 12.5174 50.9536 12.5174C50.4676 12.5174 50.0098 12.5922 49.5802 12.7417C49.1576 12.8841 48.7913 13.1013 48.4814 13.3932C48.1715 13.6851 47.9286 14.0518 47.7525 14.4933C47.5834 14.9276 47.4989 15.4438 47.4989 16.0419V18.5198H49.707V20.5063H43.0829V18.5198H45.312V12.5494H43.0829V10.5522H47.4989V13.0514C47.8581 12.0546 48.3864 11.3497 49.0836 10.9367C49.7879 10.5237 50.6226 10.3172 51.5875 10.3172C51.8903 10.3172 52.2073 10.3493 52.5383 10.4134C52.8693 10.4775 53.1933 10.5914 53.5102 10.7551L52.6862 12.9126Z" fill="#EBF4F6"/>
<path d="M41.0967 16.6828C41.0967 17.9502 40.6706 18.9043 39.8184 19.5451C38.9662 20.1859 37.7547 20.5063 36.1841 20.5063H31.7892V6.56843H35.9411C36.5187 6.56843 37.0856 6.61828 37.6421 6.71796C38.1985 6.81052 38.695 6.98853 39.1317 7.25198C39.5754 7.51543 39.9346 7.88568 40.2093 8.36274C40.484 8.83267 40.6213 9.44502 40.6213 10.1998C40.6213 10.9047 40.4417 11.5491 40.0825 12.1329C39.7303 12.7168 39.1951 13.1369 38.4767 13.3932C39.3571 13.6709 40.0121 14.0589 40.4417 14.5574C40.8784 15.0558 41.0967 15.7642 41.0967 16.6828ZM38.4555 10.4881C38.4555 10.0823 38.3781 9.75119 38.2231 9.49486C38.0752 9.23853 37.8815 9.04272 37.6421 8.90744C37.4026 8.76503 37.1349 8.67247 36.8391 8.62975C36.5433 8.58703 36.244 8.56567 35.9411 8.56567H33.9761V12.4106H35.9411C36.244 12.4106 36.5433 12.3892 36.8391 12.3465C37.1349 12.3038 37.4026 12.2148 37.6421 12.0795C37.8815 11.9371 38.0752 11.7377 38.2231 11.4814C38.3781 11.2251 38.4555 10.894 38.4555 10.4881ZM38.931 16.4585C38.931 15.7607 38.688 15.2445 38.202 14.9098C37.723 14.5752 37.0504 14.4078 36.1841 14.4078H33.9761V18.5198H36.1841C37.0504 18.5198 37.723 18.3525 38.202 18.0178C38.688 17.676 38.931 17.1562 38.931 16.4585Z" fill="#EBF4F6"/>
<path d="M87.8456 14.3651C87.8456 12.9909 87.5603 11.9727 86.9898 11.3105C86.4193 10.6483 85.6305 10.3172 84.6233 10.3172C83.757 10.3172 83.028 10.5593 82.4364 11.0435C81.8448 11.5206 81.4398 12.1899 81.2215 13.0514V10.5522H79.0346V20.5063H81.2215V16.0419C81.2215 14.8742 81.475 13.9593 81.9821 13.2971C82.4963 12.6349 83.1583 12.3038 83.9683 12.3038C84.5177 12.3038 84.9367 12.4533 85.2255 12.7524C85.5143 13.0514 85.6587 13.589 85.6587 14.3651V20.5063H87.8456V14.3651ZM81.5595 11.4836C81.749 11.2184 81.97 10.9826 82.2236 10.7778L82.286 10.7281C82.9343 10.2216 83.72 9.97548 84.6233 9.97548C85.711 9.97548 86.5995 10.3372 87.2447 11.0861C87.8919 11.8373 88.1836 12.9528 88.1836 14.3651V20.8481H85.3206V14.3651C85.3206 13.6097 85.1757 13.1901 84.9837 12.9912C84.7774 12.7775 84.4577 12.6456 83.9683 12.6456C83.2655 12.6456 82.7002 12.9258 82.2481 13.5082C81.8028 14.0907 81.5595 14.9218 81.5595 16.0419V20.8481H78.6965V10.2104H81.5595V11.4836Z" fill="#EBF4F6"/>
<path d="M74.9672 18.5198H72.7169V10.5522H68.3537V12.5494H70.53V18.5198H68.3537V20.5063H74.9672V18.5198ZM72.9599 6.56843H70.2976V9.25989H72.9599V6.56843ZM73.055 18.178H75.3052V20.8481H68.0156V18.178H70.1919V12.8912H68.0156V10.2104H73.055V18.178ZM73.2979 9.60166H69.9595V6.22666H73.2979V9.60166Z" fill="#EBF4F6"/>
<path d="M64.2017 13.8311C64.2017 13.176 64.0785 12.6278 63.832 12.1863C63.5855 11.7377 63.2544 11.3746 62.8389 11.0969C62.4304 10.8192 61.9655 10.6199 61.4443 10.4988C60.9302 10.3778 60.4055 10.3172 59.8702 10.3172C59.0462 10.3172 58.2608 10.4276 57.5143 10.6483C56.7747 10.8619 56.081 11.1574 55.433 11.5348L56.3205 13.265C56.8698 12.9446 57.4509 12.7025 58.0636 12.5388C58.6764 12.3679 59.2786 12.2824 59.8702 12.2824C60.5182 12.2824 61.0394 12.4106 61.4338 12.6669C61.8352 12.9233 62.036 13.3113 62.036 13.8311V14.2263C61.7613 14.1978 61.4901 14.1764 61.2225 14.1622C60.9548 14.1479 60.6344 14.1408 60.2611 14.1408C59.585 14.1408 58.9194 14.2156 58.2644 14.3651C57.6164 14.5075 57.0389 14.7247 56.5318 15.0166C56.0317 15.3085 55.6267 15.6752 55.3168 16.1167C55.0069 16.551 54.852 17.0601 54.852 17.644C54.852 18.1495 54.9435 18.5981 55.1266 18.9897C55.3168 19.3742 55.5668 19.6982 55.8767 19.9616C56.1866 20.2251 56.5529 20.4209 56.9755 20.5491C57.4051 20.6843 57.8594 20.752 58.3383 20.752C59.1131 20.752 59.835 20.6025 60.5041 20.3034C61.1802 20.0044 61.6908 19.5843 62.036 19.0431V20.5063H64.2017V13.8311ZM61.6979 16.5225V16.4446C61.4722 16.4158 61.2583 16.399 61.0561 16.3942C60.7551 16.3871 60.4902 16.3837 60.2611 16.3837C59.2102 16.3837 58.4641 16.5252 57.9856 16.7732C57.4975 17.0299 57.3558 17.2897 57.3558 17.5265C57.3558 17.8414 57.4658 18.0401 57.6736 18.1782C57.9061 18.3326 58.2977 18.4343 58.8982 18.4343V18.7761C57.6446 18.7761 57.0177 18.3596 57.0177 17.5265C57.0177 17.1064 57.2889 16.754 57.8312 16.4691C58.3806 16.1843 59.1905 16.0419 60.2611 16.0419C60.4935 16.0419 60.7612 16.0455 61.064 16.0526C61.3669 16.0597 61.6908 16.0918 62.036 16.1487V16.5225C62.036 16.8572 61.9515 17.1634 61.7824 17.4411C61.6204 17.7188 61.395 17.9573 61.1063 18.1566C60.8175 18.3489 60.483 18.502 60.1026 18.6159C59.7293 18.7227 59.3279 18.7761 58.8982 18.7761V18.4343C59.2993 18.4343 59.6689 18.3843 60.0087 18.2873C60.3595 18.182 60.6612 18.0431 60.9173 17.8731C61.1682 17.6996 61.3571 17.4974 61.4912 17.2675L61.4929 17.2647L61.4945 17.262C61.6299 17.0396 61.6979 16.7957 61.6979 16.5225ZM64.5398 20.8481H61.6979V19.9521C61.3969 20.2168 61.0434 20.4375 60.6406 20.6158C59.9259 20.9352 59.1573 21.0938 58.3383 21.0938C57.8287 21.0938 57.3416 21.0218 56.8784 20.8763C56.4156 20.736 56.0074 20.5192 55.6592 20.2231C55.3122 19.9282 55.034 19.5666 54.8242 19.1426L54.8226 19.1392L54.8209 19.1357C54.6132 18.6914 54.5139 18.1916 54.5139 17.644C54.5139 17.0357 54.6663 16.4874 54.9781 16.0111L55.0426 15.9168C55.3826 15.4331 55.8247 15.0347 56.3627 14.7206L56.3645 14.7196L56.4667 14.6622C56.981 14.3805 57.5563 14.1712 58.1899 14.0317L58.3175 14.0035C58.9559 13.8671 59.6039 13.7991 60.2611 13.7991C60.6382 13.7991 60.965 13.8063 61.2403 13.8209C61.3918 13.829 61.5443 13.8393 61.6979 13.8518V13.8311C61.6979 13.417 61.5472 13.1437 61.2532 12.956L61.252 12.9551L61.251 12.9545C60.9283 12.7447 60.4772 12.6242 59.8702 12.6242C59.3111 12.6242 58.7392 12.7049 58.1536 12.8682L58.15 12.8692C57.5662 13.0252 57.0128 13.2558 56.4893 13.5611L56.1831 13.7396L54.984 11.4018L55.2643 11.2386C55.9362 10.8473 56.6549 10.5412 57.4194 10.3203L57.5659 10.2785C58.3009 10.0761 59.0693 9.97548 59.8702 9.97548C60.4309 9.97548 60.9815 10.0388 61.5211 10.1659C62.0788 10.2955 62.5821 10.5104 63.0276 10.8132C63.4883 11.1216 63.8555 11.5255 64.1274 12.0203C64.409 12.5255 64.5398 13.1348 64.5398 13.8311V20.8481Z" fill="#EBF4F6"/>
<path d="M49.707 18.5198H47.4989V16.0419C47.4989 15.4438 47.5834 14.9276 47.7525 14.4933C47.9286 14.0518 48.1715 13.6851 48.4814 13.3932C48.7913 13.1013 49.1576 12.8841 49.5802 12.7417C50.0098 12.5922 50.4676 12.5174 50.9536 12.5174C51.3057 12.5174 51.6156 12.553 51.8833 12.6242C52.158 12.6883 52.4256 12.7844 52.6862 12.9126L53.5102 10.7551C53.1933 10.5914 52.8693 10.4775 52.5383 10.4134C52.2073 10.3493 51.8903 10.3172 51.5875 10.3172C50.6226 10.3172 49.7879 10.5237 49.0836 10.9367C48.3864 11.3497 47.8581 12.0546 47.4989 13.0514V10.5522H43.0829V12.5494H45.312V18.5198H43.0829V20.5063H49.707V18.5198ZM47.837 11.6481C48.1369 11.2273 48.4945 10.8896 48.9128 10.6418L48.9139 10.641L48.9861 10.5998C49.7347 10.1794 50.6057 9.97548 51.5875 9.97548C51.9139 9.97548 52.2522 10.0101 52.6018 10.0778C52.966 10.1483 53.3203 10.2731 53.6641 10.4508L53.9353 10.5909L52.8691 13.3825L52.5383 13.22C52.3 13.1028 52.0563 13.0154 51.8072 12.9573L51.8022 12.9561L51.7973 12.9548C51.5641 12.8928 51.2842 12.8592 50.9536 12.8592C50.5025 12.8592 50.0821 12.9284 49.6903 13.0648L49.6886 13.0654L49.6871 13.0659C49.3081 13.1937 48.9845 13.3864 48.7119 13.6432C48.4427 13.8968 48.2265 14.2193 48.0669 14.6183C47.9171 15.0033 47.837 15.4751 47.837 16.0419V18.178H50.045V20.8481H42.7448V18.178H44.974V12.8912H42.7448V10.2104H47.837V11.6481Z" fill="#EBF4F6"/>
<path d="M41.0967 16.6828C41.0967 15.7642 40.8784 15.0558 40.4417 14.5574C40.0121 14.0589 39.3571 13.6709 38.4767 13.3932C39.1951 13.1369 39.7303 12.7168 40.0825 12.1329C40.4417 11.5491 40.6213 10.9047 40.6213 10.1998C40.6213 9.44502 40.484 8.83267 40.2093 8.36274C39.9346 7.88568 39.5754 7.51543 39.1317 7.25198C38.695 6.98853 38.1985 6.81052 37.6421 6.71796C37.0856 6.61828 36.5187 6.56843 35.9411 6.56843V6.22666C36.538 6.22666 37.1247 6.27812 37.701 6.38136C38.2931 6.48031 38.8292 6.67139 39.305 6.95844C39.8004 7.253 40.1988 7.66587 40.5003 8.18885L40.5574 8.29148C40.8329 8.81305 40.9594 9.45581 40.9594 10.1998C40.9594 10.9657 40.7634 11.6719 40.3711 12.3106C40.1113 12.7414 39.7643 13.0897 39.337 13.3572C39.897 13.614 40.3536 13.9359 40.6946 14.3307C41.2038 14.9119 41.4348 15.7125 41.4348 16.6828C41.4348 18.0362 40.9742 19.1019 40.0201 19.8193C39.0876 20.5205 37.7942 20.8481 36.1841 20.8481H31.4511V6.22666H35.9411V6.56843H31.7892V20.5063H36.1841C37.7547 20.5063 38.9662 20.1859 39.8184 19.5451C40.6706 18.9043 41.0967 17.9502 41.0967 16.6828ZM38.5929 16.4585C38.5929 15.8511 38.3881 15.4516 38.0117 15.1923L38.0098 15.191C37.6088 14.9108 37.0134 14.7496 36.1841 14.7496H34.3142V18.178H36.1841V18.5198H33.9761V14.4078H36.1841C37.0504 14.4078 37.723 14.5752 38.202 14.9098C38.688 15.2445 38.931 15.7607 38.931 16.4585C38.931 17.1562 38.688 17.676 38.202 18.0178C37.723 18.3525 37.0504 18.5198 36.1841 18.5198V18.178C37.0131 18.178 37.6083 18.017 38.0093 17.7369C38.3881 17.4703 38.5929 17.0655 38.5929 16.4585ZM38.1175 10.4881C38.1175 10.1238 38.0476 9.86007 37.9346 9.67309L37.9329 9.67008L37.9311 9.66708C37.8114 9.4597 37.6601 9.30921 37.4771 9.20582L37.4738 9.20398L37.4707 9.20198C37.272 9.08383 37.0468 9.00492 36.7913 8.96801C36.5115 8.92762 36.2282 8.90744 35.9411 8.90744H34.3142V12.0688H35.9411V12.4106H33.9761V8.56567H35.9411C36.244 8.56567 36.5433 8.58703 36.8391 8.62975C37.1349 8.67247 37.4026 8.76503 37.6421 8.90744C37.8815 9.04272 38.0752 9.23853 38.2231 9.49486C38.3781 9.75119 38.4555 10.0823 38.4555 10.4881C38.4555 10.894 38.3781 11.2251 38.2231 11.4814C38.0752 11.7377 37.8815 11.9371 37.6421 12.0795C37.4026 12.2148 37.1349 12.3038 36.8391 12.3465C36.5433 12.3892 36.244 12.4106 35.9411 12.4106V12.0688C36.2282 12.0688 36.5115 12.0486 36.7913 12.0083C37.0489 11.971 37.2757 11.8945 37.4753 11.782C37.6599 11.6711 37.8117 11.5161 37.9311 11.3092L37.9329 11.3062L37.9346 11.3032C38.0476 11.1162 38.1175 10.8525 38.1175 10.4881Z" fill="#EBF4F6"/>
<path d="M147.631 17.3343C147.519 18.3809 147.11 19.214 146.406 19.8335C145.708 20.4458 144.835 20.752 143.786 20.752C143.208 20.752 142.68 20.6559 142.201 20.4636C141.722 20.2714 141.314 20.0044 140.975 19.6626C140.637 19.3208 140.373 18.9114 140.183 18.4343C140 17.9502 139.908 17.4233 139.908 16.8536V12.5494H137.679V10.5522H139.908V6.56843H142.095V10.5522H146.226V12.5494H142.095V16.8536C142.095 17.4945 142.25 17.9715 142.56 18.2848C142.87 18.5981 143.279 18.7547 143.786 18.7547C144.405 18.7547 144.867 18.5732 145.17 18.21C145.473 17.8469 145.652 17.409 145.708 16.8964L147.631 17.3343Z" fill="#EBF4F6"/>
<path d="M135.45 17.5265C135.45 18.1744 135.306 18.7013 135.017 19.1072C134.728 19.5131 134.355 19.8406 133.897 20.0898C133.446 20.339 132.939 20.5099 132.376 20.6025C131.819 20.7021 131.274 20.752 130.738 20.752C129.844 20.752 128.953 20.6203 128.065 20.3568C127.178 20.0934 126.41 19.748 125.762 19.3208L126.671 17.5051C127.446 17.9608 128.153 18.2848 128.794 18.4771C129.442 18.6622 130.09 18.7547 130.738 18.7547C131.619 18.7547 132.26 18.6622 132.661 18.4771C133.062 18.2848 133.263 18.0214 133.263 17.6867C133.263 17.5229 133.207 17.3877 133.094 17.2809C132.982 17.1741 132.795 17.0779 132.534 16.9925C132.274 16.8999 131.929 16.8109 131.499 16.7255C131.076 16.6329 130.548 16.5368 129.914 16.4371C129.407 16.3517 128.925 16.2484 128.467 16.1274C128.016 15.9992 127.618 15.8212 127.273 15.5934C126.928 15.3655 126.65 15.0771 126.438 14.7282C126.234 14.3794 126.132 13.9415 126.132 13.4146C126.132 12.8805 126.266 12.4177 126.534 12.0261C126.808 11.6274 127.164 11.2998 127.601 11.0435C128.044 10.7872 128.541 10.6021 129.09 10.4881C129.64 10.3742 130.189 10.3172 130.738 10.3172C131.513 10.3172 132.263 10.4205 132.989 10.627C133.721 10.8263 134.362 11.1147 134.911 11.4921L134.045 13.201C133.496 12.8521 132.96 12.6171 132.439 12.496C131.925 12.3679 131.358 12.3038 130.738 12.3038C130.478 12.3038 130.206 12.318 129.925 12.3465C129.643 12.375 129.382 12.432 129.143 12.5174C128.904 12.5957 128.703 12.7061 128.541 12.8485C128.386 12.9838 128.308 13.1511 128.308 13.3505C128.308 13.6139 128.537 13.8311 128.995 14.002C129.46 14.1657 130.249 14.3295 131.362 14.4933C131.967 14.5787 132.52 14.6891 133.02 14.8244C133.52 14.9525 133.95 15.1305 134.309 15.3584C134.668 15.5791 134.947 15.8675 135.144 16.2235C135.348 16.5724 135.45 17.0067 135.45 17.5265Z" fill="#EBF4F6"/>
<path d="M114.574 10.5522H116.761V16.7041C116.761 17.4731 116.906 18.0071 117.194 18.3062C117.483 18.6052 117.902 18.7547 118.452 18.7547C119.254 18.7547 119.913 18.4237 120.427 17.7615C120.941 17.0993 121.198 16.1843 121.198 15.0166V10.5522H123.385V20.5063H121.198V18.0178C120.98 18.8722 120.575 19.5415 119.983 20.0257C119.392 20.5099 118.663 20.752 117.796 20.752C116.789 20.752 116 20.4209 115.43 19.7587C114.86 19.0894 114.574 18.0712 114.574 16.7041V10.5522Z" fill="#EBF4F6"/>
<path d="M111.849 12.9126C111.588 12.7844 111.32 12.6883 111.046 12.6242C110.778 12.553 110.468 12.5174 110.116 12.5174C109.63 12.5174 109.172 12.5922 108.743 12.7417C108.32 12.8841 107.954 13.1013 107.644 13.3932C107.334 13.6851 107.091 14.0518 106.915 14.4933C106.746 14.9276 106.661 15.4438 106.661 16.0419V18.5198H108.869V20.5063H102.245V18.5198H104.474V12.5494H102.245V10.5522H106.661V13.0514C107.02 12.0546 107.549 11.3497 108.246 10.9367C108.95 10.5237 109.785 10.3172 110.75 10.3172C111.053 10.3172 111.37 10.3493 111.701 10.4134C112.032 10.4775 112.356 10.5914 112.673 10.7551L111.849 12.9126Z" fill="#EBF4F6"/>
<path d="M100.386 17.3343C100.273 18.3809 99.8647 19.214 99.1603 19.8335C98.4631 20.4458 97.5897 20.752 96.5403 20.752C95.9628 20.752 95.4345 20.6559 94.9556 20.4636C94.4767 20.2714 94.0682 20.0044 93.7301 19.6626C93.392 19.3208 93.1279 18.9114 92.9377 18.4343C92.7546 17.9502 92.6631 17.4233 92.6631 16.8536V12.5494H90.4339V10.5522H92.6631V6.56843H94.85V10.5522H98.9808V12.5494H94.85V16.8536C94.85 17.4945 95.0049 17.9715 95.3148 18.2848C95.6247 18.5981 96.0332 18.7547 96.5403 18.7547C97.1601 18.7547 97.6214 18.5732 97.9243 18.21C98.2271 17.8469 98.4067 17.409 98.4631 16.8964L100.386 17.3343Z" fill="#EBF4F6"/>
<path d="M142.095 16.8536V12.5494H146.226V10.5522H142.095V6.56843H139.908V10.5522H137.679V12.5494H139.908V16.8536C139.908 17.4233 140 17.9502 140.183 18.4343C140.373 18.9114 140.637 19.3208 140.975 19.6626C141.314 20.0044 141.722 20.2714 142.201 20.4636C142.68 20.6559 143.208 20.752 143.786 20.752C144.835 20.752 145.708 20.4458 146.406 19.8335C147.11 19.214 147.519 18.3809 147.631 17.3343L145.708 16.8964C145.652 17.409 145.473 17.8469 145.17 18.21C144.867 18.5732 144.405 18.7547 143.786 18.7547V18.413C144.34 18.413 144.692 18.253 144.911 17.9898C145.167 17.6828 145.323 17.3101 145.373 16.8586L145.414 16.479L148 17.0679L147.967 17.3713C147.847 18.4928 147.404 19.4087 146.628 20.0913C145.86 20.765 144.905 21.0938 143.786 21.0938C143.171 21.0938 142.599 20.9912 142.076 20.7812C141.558 20.5731 141.11 20.2814 140.736 19.9042C140.364 19.5279 140.076 19.0789 139.869 18.562L139.868 18.5593L139.867 18.5563C139.668 18.0295 139.57 17.4608 139.57 16.8536V12.8912H137.341V10.2104H139.57V6.22666H142.433V10.2104H146.564V12.8912H142.433V16.8536C142.433 17.4444 142.576 17.8179 142.799 18.0432C143.036 18.2822 143.353 18.413 143.786 18.413V18.7547C143.279 18.7547 142.87 18.5981 142.56 18.2848C142.25 17.9715 142.095 17.4945 142.095 16.8536Z" fill="#EBF4F6"/>
<path d="M126.841 17.2098C127.598 17.6551 128.279 17.9656 128.886 18.1481L129.002 18.1803C129.583 18.3358 130.161 18.413 130.738 18.413V18.7547C130.09 18.7547 129.442 18.6622 128.794 18.4771C128.153 18.2848 127.446 17.9608 126.671 17.5051L125.762 19.3208C126.41 19.748 127.178 20.0934 128.065 20.3568C128.953 20.6203 129.844 20.752 130.738 20.752C131.274 20.752 131.819 20.7021 132.376 20.6025C132.939 20.5099 133.446 20.339 133.897 20.0898C134.355 19.8406 134.728 19.5131 135.017 19.1072C135.306 18.7013 135.45 18.1744 135.45 17.5265C135.45 17.0067 135.348 16.5724 135.144 16.2235C134.947 15.8675 134.668 15.5791 134.309 15.3584C133.95 15.1305 133.52 14.9525 133.02 14.8244C132.52 14.6891 131.967 14.5787 131.362 14.4933C130.249 14.3295 129.46 14.1657 128.995 14.002C128.537 13.8311 128.308 13.6139 128.308 13.3505C128.308 13.1511 128.386 12.9838 128.541 12.8485C128.703 12.7061 128.904 12.5957 129.143 12.5174C129.382 12.432 129.643 12.375 129.925 12.3465C130.206 12.318 130.478 12.3038 130.738 12.3038C131.358 12.3038 131.925 12.3679 132.439 12.496C132.96 12.6171 133.496 12.8521 134.045 13.201L134.911 11.4921C134.362 11.1147 133.721 10.8263 132.989 10.627C132.263 10.4205 131.513 10.3172 130.738 10.3172C130.189 10.3172 129.64 10.3742 129.09 10.4881C128.541 10.6021 128.044 10.7872 127.601 11.0435C127.164 11.2998 126.808 11.6274 126.534 12.0261C126.266 12.4177 126.132 12.8805 126.132 13.4146C126.132 13.9415 126.234 14.3794 126.438 14.7282C126.65 15.0771 126.928 15.3655 127.273 15.5934C127.618 15.8212 128.016 15.9992 128.467 16.1274C128.925 16.2484 129.407 16.3517 129.914 16.4371C130.548 16.5368 131.076 16.6329 131.499 16.7255C131.929 16.8109 132.274 16.8999 132.534 16.9925C132.795 17.0779 132.982 17.1741 133.094 17.2809C133.207 17.3877 133.263 17.5229 133.263 17.6867C133.263 18.0214 133.062 18.2848 132.661 18.4771C132.26 18.6622 131.619 18.7547 130.738 18.7547V18.413C131.606 18.413 132.185 18.3198 132.517 18.1675C132.847 18.0092 132.925 17.8431 132.925 17.6867C132.925 17.6122 132.904 17.5689 132.863 17.5302C132.805 17.4749 132.674 17.3977 132.43 17.3176L132.426 17.3162L132.422 17.3149C132.183 17.23 131.855 17.1446 131.434 17.0607L131.43 17.0602L131.427 17.0596C131.013 16.9689 130.492 16.874 129.862 16.7749L129.859 16.7742C129.342 16.6872 128.85 16.5818 128.381 16.458L128.378 16.4573L128.375 16.4565C127.896 16.3202 127.466 16.1288 127.088 15.8796C126.702 15.6245 126.388 15.2996 126.15 14.9066L126.149 14.9045L126.148 14.9023C125.905 14.4872 125.794 13.9848 125.794 13.4146C125.794 12.8199 125.944 12.2874 126.255 11.8319L126.256 11.8309L126.314 11.7489C126.61 11.3442 126.983 11.0106 127.431 10.748L127.433 10.7468L127.523 10.6959C127.977 10.4465 128.477 10.2663 129.022 10.1534C129.593 10.0349 130.166 9.97548 130.738 9.97548C131.542 9.97548 132.321 10.0824 133.076 10.2969C133.84 10.5048 134.517 10.8078 135.101 11.2094L135.348 11.3791L134.178 13.6887L133.865 13.4903C133.341 13.1576 132.841 12.94 132.363 12.8291L132.361 12.8285L132.358 12.8278C131.875 12.7072 131.335 12.6456 130.738 12.6456C130.49 12.6456 130.23 12.6592 129.958 12.6866C129.701 12.7127 129.467 12.7643 129.256 12.8397L129.247 12.8427C129.044 12.9092 128.885 12.9989 128.763 13.1063L128.762 13.1072C128.678 13.1804 128.646 13.2547 128.646 13.3505C128.646 13.3688 128.65 13.4035 128.711 13.4618C128.779 13.5262 128.903 13.6028 129.108 13.6797C129.54 13.8316 130.3 13.9916 131.41 14.155C132.025 14.2418 132.589 14.3543 133.103 14.4931C133.628 14.6277 134.091 14.8173 134.485 15.0663C134.891 15.3163 135.212 15.6469 135.439 16.0564C135.679 16.4696 135.788 16.9656 135.788 17.5265C135.788 18.2249 135.632 18.8277 135.291 19.3068C134.972 19.7563 134.559 20.1171 134.059 20.3895C133.573 20.6586 133.03 20.8406 132.435 20.9389C131.86 21.0419 131.294 21.0938 130.738 21.0938C129.81 21.0938 128.887 20.957 127.97 20.6847C127.057 20.4137 126.258 20.0556 125.578 19.607L125.324 19.4398L126.531 17.0275L126.841 17.2098Z" fill="#EBF4F6"/>
<path d="M116.761 16.7041V10.5522H114.574V16.7041C114.574 18.0712 114.86 19.0894 115.43 19.7587C116 20.4209 116.789 20.752 117.796 20.752C118.663 20.752 119.392 20.5099 119.983 20.0257C120.575 19.5415 120.98 18.8722 121.198 18.0178V20.5063H123.385V10.5522H121.198V15.0166C121.198 16.1843 120.941 17.0993 120.427 17.7615C119.913 18.4237 119.254 18.7547 118.452 18.7547V18.413C119.146 18.413 119.708 18.1336 120.161 17.5504C120.613 16.9679 120.86 16.137 120.86 15.0166V10.2104H123.723V20.8481H120.86V19.5805C120.671 19.8464 120.45 20.0839 120.196 20.2914C119.536 20.8316 118.729 21.0938 117.796 21.0938C116.709 21.0938 115.82 20.7321 115.175 19.9832L115.174 19.9818C114.528 19.2243 114.236 18.1103 114.236 16.7041V10.2104H117.099V16.7041C117.099 17.4513 117.244 17.868 117.436 18.0674C117.642 18.281 117.962 18.413 118.452 18.413V18.7547C117.902 18.7547 117.483 18.6052 117.194 18.3062C116.906 18.0071 116.761 17.4731 116.761 16.7041Z" fill="#EBF4F6"/>
<path d="M108.869 18.5198H106.661V16.0419C106.661 15.4438 106.746 14.9276 106.915 14.4933C107.091 14.0518 107.334 13.6851 107.644 13.3932C107.954 13.1013 108.32 12.8841 108.743 12.7417C109.172 12.5922 109.63 12.5174 110.116 12.5174C110.468 12.5174 110.778 12.553 111.046 12.6242C111.32 12.6883 111.588 12.7844 111.849 12.9126L112.673 10.7551C112.356 10.5914 112.032 10.4775 111.701 10.4134C111.37 10.3493 111.053 10.3172 110.75 10.3172C109.785 10.3172 108.95 10.5237 108.246 10.9367C107.549 11.3497 107.02 12.0546 106.661 13.0514V10.5522H102.245V12.5494H104.474V18.5198H102.245V20.5063H108.869V18.5198ZM106.999 11.6481C107.299 11.2273 107.657 10.8896 108.075 10.6418L108.076 10.641L108.148 10.5998C108.897 10.1794 109.768 9.97548 110.75 9.97548C111.076 9.97548 111.415 10.0101 111.764 10.0778C112.128 10.1483 112.483 10.2731 112.826 10.4508L113.098 10.5909L112.031 13.3825L111.701 13.22C111.462 13.1028 111.219 13.0154 110.97 12.9573L110.965 12.9561L110.96 12.9548C110.726 12.8928 110.447 12.8592 110.116 12.8592C109.665 12.8592 109.244 12.9284 108.853 13.0648L108.851 13.0654L108.85 13.0659C108.47 13.1937 108.147 13.3864 107.874 13.6432C107.605 13.8968 107.389 14.2193 107.229 14.6183C107.079 15.0033 106.999 15.4751 106.999 16.0419V18.178H109.207V20.8481H101.907V18.178H104.136V12.8912H101.907V10.2104H106.999V11.6481Z" fill="#EBF4F6"/>
<path d="M94.85 16.8536V12.5494H98.9808V10.5522H94.85V6.56843H92.6631V10.5522H90.4339V12.5494H92.6631V16.8536C92.6631 17.4233 92.7546 17.9502 92.9377 18.4343C93.1279 18.9114 93.392 19.3208 93.7301 19.6626C94.0682 20.0044 94.4767 20.2714 94.9556 20.4636C95.4345 20.6559 95.9628 20.752 96.5403 20.752C97.5897 20.752 98.4631 20.4458 99.1603 19.8335C99.8647 19.214 100.273 18.3809 100.386 17.3343L98.4631 16.8964C98.4067 17.409 98.2271 17.8469 97.9243 18.21C97.6214 18.5732 97.1601 18.7547 96.5403 18.7547V18.413C97.0943 18.413 97.4462 18.253 97.6658 17.9898C97.9217 17.6828 98.0775 17.3101 98.1272 16.8586L98.1688 16.479L100.755 17.0679L100.722 17.3713C100.601 18.4928 100.158 19.4087 99.3822 20.0913C98.6151 20.765 97.6594 21.0938 96.5403 21.0938C95.9252 21.0938 95.354 20.9912 94.8308 20.7812C94.3124 20.5731 93.8642 20.2814 93.4911 19.9042C93.1188 19.5279 92.8302 19.0789 92.6241 18.562L92.6231 18.5593L92.6219 18.5563C92.4227 18.0295 92.325 17.4608 92.325 16.8536V12.8912H90.0958V10.2104H92.325V6.22666H95.188V10.2104H99.3188V12.8912H95.188V16.8536C95.188 17.4444 95.331 17.8179 95.5538 18.0432C95.7903 18.2822 96.1076 18.413 96.5403 18.413V18.7547C96.0332 18.7547 95.6247 18.5981 95.3148 18.2848C95.0049 17.9715 94.85 17.4945 94.85 16.8536Z" fill="#EBF4F6"/>
<path d="M16.0584 13.6709C16.0584 13.199 15.68 12.8165 15.2132 12.8165H11.4944C11.0276 12.8165 10.6492 13.199 10.6492 13.6709V16.4051C10.6492 16.877 11.0276 17.2595 11.4944 17.2595H15.2132C15.68 17.2595 16.0584 16.877 16.0584 16.4051V13.6709ZM17.4106 16.4051C17.4106 17.632 16.4268 18.6266 15.2132 18.6266H11.4944C10.2808 18.6266 9.29694 17.632 9.29694 16.4051V13.6709C9.29694 12.444 10.2808 11.4494 11.4944 11.4494H15.2132C16.4268 11.4494 17.4106 12.444 17.4106 13.6709V16.4051Z" fill="#EBF4F6"/>
<path d="M14.7061 10.8513C14.7061 10.1434 14.1385 9.56962 13.4383 9.56962C12.7381 9.56962 12.1705 10.1434 12.1705 10.8513V12.3038H10.8183V10.8513C10.8183 9.38841 11.9913 8.20253 13.4383 8.20253C14.8853 8.20253 16.0584 9.38841 16.0584 10.8513V12.3038H14.7061V10.8513Z" fill="#EBF4F6"/>
<path d="M14.368 15.038C14.368 15.6042 13.9139 16.0633 13.3538 16.0633C12.7937 16.0633 12.3396 15.6042 12.3396 15.038C12.3396 14.4717 12.7937 14.0127 13.3538 14.0127C13.9139 14.0127 14.368 14.4717 14.368 15.038Z" fill="#EBF4F6"/>
</svg>
