<svg width="97" height="94" viewBox="0 0 97 94" fill="none" xmlns="http://www.w3.org/2000/svg">
<mask id="path-1-outside-1_32_23" maskUnits="userSpaceOnUse" x="0" y="0" width="97" height="94" fill="black">
<rect fill="white" width="97" height="94"/>
<path d="M33.451 63.6034C32.7596 63.6034 32.1808 63.3735 31.7144 62.9137C31.2448 62.4507 31.01 61.8767 31.01 61.1918C31.01 60.507 31.2448 59.9346 31.7144 59.4748C32.184 59.015 32.7645 58.7851 33.4558 58.7851H44.1783C44.8729 58.7851 45.4533 59.0166 45.9197 59.4797C46.386 59.9427 46.6208 60.5166 46.6241 61.2015C46.6273 61.8864 46.3925 62.4587 45.9197 62.9185C45.4468 63.3783 44.8664 63.6082 44.1783 63.6082L33.451 63.6034ZM30.3546 87.8152C24.4748 87.8152 19.4609 85.82 15.3129 81.8298C11.1648 77.8395 9.09073 72.9698 9.09073 67.2207V23.4465C6.84059 23.4465 4.9296 22.6877 3.35776 21.1701C1.78592 19.6492 1 17.7794 1 15.5608V8.97735C1 6.78446 1.79244 4.90668 3.37732 3.34401C4.96221 1.78134 6.86667 1 9.09073 1H51.5157C53.7658 1 55.6931 1.78134 57.2976 3.34401C58.8988 4.90668 59.6993 6.78446 59.6993 8.97735V15.5608C59.6993 17.7794 58.8988 19.6492 57.2976 21.1701C55.6931 22.6877 53.7658 23.4465 51.5157 23.4465V37.2646C51.5157 39.4061 50.7412 41.2404 49.1922 42.7677C47.6432 44.295 45.7843 45.0587 43.6157 45.0587H33.451C32.7563 45.0587 32.1742 44.8272 31.7047 44.3642C31.2383 43.9012 31.0051 43.3272 31.0051 42.6423C31.0051 41.9575 31.2383 41.3851 31.7047 40.9253C32.171 40.4655 32.7531 40.234 33.451 40.2308H46.6192V23.4465H13.9823V67.2255C13.9823 71.6756 15.577 75.4167 18.7663 78.4488C21.9524 81.4777 25.82 82.9921 30.3692 82.9921C32.0096 82.9921 33.5798 82.7767 35.0799 82.3458C36.5832 81.9117 38.0002 81.2703 39.3307 80.4214C39.8851 80.0902 40.4769 79.9922 41.1063 80.1272C41.7357 80.2622 42.2135 80.6143 42.5396 81.1834C42.9081 81.7526 43.0092 82.3731 42.8429 83.0452C42.6765 83.714 42.3015 84.2316 41.7178 84.5982C40.0318 85.5982 38.2496 86.3843 36.3713 86.9567C34.4929 87.529 32.4857 87.8152 30.3497 87.8152M9.09073 18.6235H51.5157C52.3962 18.6235 53.1642 18.3293 53.8196 17.7409C54.4784 17.1524 54.8077 16.4258 54.8077 15.5608V8.97735C54.8077 8.1092 54.4784 7.36645 53.8196 6.74909C53.1609 6.13174 52.3929 5.82306 51.5157 5.82306H9.09073C8.21024 5.82306 7.45856 6.13174 6.83569 6.74909C6.21283 7.36645 5.89813 8.1092 5.89161 8.97735V15.5608C5.89161 16.429 6.20468 17.1557 6.8308 17.7409C7.46019 18.3293 8.2135 18.6235 9.09073 18.6235ZM68.6363 79.6545C72.4387 79.6545 75.6786 78.3346 78.356 75.6948C81.03 73.055 82.3671 69.8605 82.3671 66.1114C82.3671 62.3622 81.03 59.1694 78.356 56.5328C75.6786 53.8897 72.4387 52.5682 68.6363 52.5682C64.8372 52.5682 61.5989 53.8897 58.9216 56.5328C56.2442 59.1694 54.9056 62.3622 54.9056 66.1114C54.9056 69.8605 56.2426 73.055 58.9167 75.6948C61.5908 78.3346 64.8307 79.6529 68.6363 79.6497M68.6363 84.4728C63.4643 84.4728 59.0667 82.6882 55.4436 79.1192C51.8206 75.5501 50.0107 71.2142 50.014 66.1114C50.0172 61.0086 51.8271 56.6726 55.4436 53.1036C59.0602 49.5345 63.4577 47.75 68.6363 47.75C73.8149 47.75 78.2125 49.5345 81.829 53.1036C85.4455 56.6726 87.2554 61.0086 87.2587 66.1114C87.2587 68.1596 86.9277 70.1274 86.2657 72.0148C85.6004 73.9054 84.6352 75.6723 83.3699 77.3154L95.3152 89.0981C95.7717 89.5483 96 90.0852 96 90.709C96 91.3328 95.7717 91.8714 95.3152 92.3247C94.8586 92.7781 94.2912 93.0032 93.6129 93C92.9346 92.9967 92.3802 92.7717 91.9497 92.3247L79.9995 80.6384C78.3299 81.886 76.5379 82.8378 74.6237 83.4937C72.7061 84.1496 70.7104 84.4776 68.6363 84.4776"/>
</mask>
<path d="M33.451 63.6034C32.7596 63.6034 32.1808 63.3735 31.7144 62.9137C31.2448 62.4507 31.01 61.8767 31.01 61.1918C31.01 60.507 31.2448 59.9346 31.7144 59.4748C32.184 59.015 32.7645 58.7851 33.4558 58.7851H44.1783C44.8729 58.7851 45.4533 59.0166 45.9197 59.4797C46.386 59.9427 46.6208 60.5166 46.6241 61.2015C46.6273 61.8864 46.3925 62.4587 45.9197 62.9185C45.4468 63.3783 44.8664 63.6082 44.1783 63.6082L33.451 63.6034ZM30.3546 87.8152C24.4748 87.8152 19.4609 85.82 15.3129 81.8298C11.1648 77.8395 9.09073 72.9698 9.09073 67.2207V23.4465C6.84059 23.4465 4.9296 22.6877 3.35776 21.1701C1.78592 19.6492 1 17.7794 1 15.5608V8.97735C1 6.78446 1.79244 4.90668 3.37732 3.34401C4.96221 1.78134 6.86667 1 9.09073 1H51.5157C53.7658 1 55.6931 1.78134 57.2976 3.34401C58.8988 4.90668 59.6993 6.78446 59.6993 8.97735V15.5608C59.6993 17.7794 58.8988 19.6492 57.2976 21.1701C55.6931 22.6877 53.7658 23.4465 51.5157 23.4465V37.2646C51.5157 39.4061 50.7412 41.2404 49.1922 42.7677C47.6432 44.295 45.7843 45.0587 43.6157 45.0587H33.451C32.7563 45.0587 32.1742 44.8272 31.7047 44.3642C31.2383 43.9012 31.0051 43.3272 31.0051 42.6423C31.0051 41.9575 31.2383 41.3851 31.7047 40.9253C32.171 40.4655 32.7531 40.234 33.451 40.2308H46.6192V23.4465H13.9823V67.2255C13.9823 71.6756 15.577 75.4167 18.7663 78.4488C21.9524 81.4777 25.82 82.9921 30.3692 82.9921C32.0096 82.9921 33.5798 82.7767 35.0799 82.3458C36.5832 81.9117 38.0002 81.2703 39.3307 80.4214C39.8851 80.0902 40.4769 79.9922 41.1063 80.1272C41.7357 80.2622 42.2135 80.6143 42.5396 81.1834C42.9081 81.7526 43.0092 82.3731 42.8429 83.0452C42.6765 83.714 42.3015 84.2316 41.7178 84.5982C40.0318 85.5982 38.2496 86.3843 36.3713 86.9567C34.4929 87.529 32.4857 87.8152 30.3497 87.8152M9.09073 18.6235H51.5157C52.3962 18.6235 53.1642 18.3293 53.8196 17.7409C54.4784 17.1524 54.8077 16.4258 54.8077 15.5608V8.97735C54.8077 8.1092 54.4784 7.36645 53.8196 6.74909C53.1609 6.13174 52.3929 5.82306 51.5157 5.82306H9.09073C8.21024 5.82306 7.45856 6.13174 6.83569 6.74909C6.21283 7.36645 5.89813 8.1092 5.89161 8.97735V15.5608C5.89161 16.429 6.20468 17.1557 6.8308 17.7409C7.46019 18.3293 8.2135 18.6235 9.09073 18.6235ZM68.6363 79.6545C72.4387 79.6545 75.6786 78.3346 78.356 75.6948C81.03 73.055 82.3671 69.8605 82.3671 66.1114C82.3671 62.3622 81.03 59.1694 78.356 56.5328C75.6786 53.8897 72.4387 52.5682 68.6363 52.5682C64.8372 52.5682 61.5989 53.8897 58.9216 56.5328C56.2442 59.1694 54.9056 62.3622 54.9056 66.1114C54.9056 69.8605 56.2426 73.055 58.9167 75.6948C61.5908 78.3346 64.8307 79.6529 68.6363 79.6497M68.6363 84.4728C63.4643 84.4728 59.0667 82.6882 55.4436 79.1192C51.8206 75.5501 50.0107 71.2142 50.014 66.1114C50.0172 61.0086 51.8271 56.6726 55.4436 53.1036C59.0602 49.5345 63.4577 47.75 68.6363 47.75C73.8149 47.75 78.2125 49.5345 81.829 53.1036C85.4455 56.6726 87.2554 61.0086 87.2587 66.1114C87.2587 68.1596 86.9277 70.1274 86.2657 72.0148C85.6004 73.9054 84.6352 75.6723 83.3699 77.3154L95.3152 89.0981C95.7717 89.5483 96 90.0852 96 90.709C96 91.3328 95.7717 91.8714 95.3152 92.3247C94.8586 92.7781 94.2912 93.0032 93.6129 93C92.9346 92.9967 92.3802 92.7717 91.9497 92.3247L79.9995 80.6384C78.3299 81.886 76.5379 82.8378 74.6237 83.4937C72.7061 84.1496 70.7104 84.4776 68.6363 84.4776" fill="#071952"/>
<path d="M5.89161 18.6235H6.39161V5.82306H5.89161H5.39161V18.6235H5.89161ZM33.451 63.6034L33.4514 62.6034H33.451V63.6034ZM44.1783 63.6082L44.1778 64.6082H44.1783V63.6082ZM9.09073 23.4465H10.0907V22.4465H9.09073V23.4465ZM3.35776 21.1701L2.6624 21.8887L2.66316 21.8895L3.35776 21.1701ZM9.09073 1V2V1ZM57.2976 3.34401L57.996 2.62835L57.9953 2.62764L57.2976 3.34401ZM57.2976 21.1701L57.9848 21.8965L57.9863 21.8951L57.2976 21.1701ZM51.5157 23.4465V22.4465H50.5157V23.4465H51.5157ZM31.7047 44.3642L31.0001 45.0738L31.0026 45.0763L31.7047 44.3642ZM33.451 40.2308V39.2308L33.4464 39.2308L33.451 40.2308ZM46.6192 40.2308V41.2308H47.6192V40.2308H46.6192ZM46.6192 23.4465H47.6192V22.4465H46.6192V23.4465ZM13.9823 23.4465V22.4465H12.9823V23.4465H13.9823ZM18.7663 78.4488L18.0773 79.1735L18.0773 79.1735L18.7663 78.4488ZM35.0799 82.3458L35.3559 83.3069L35.3573 83.3066L35.0799 82.3458ZM39.3307 80.4214L38.8178 79.5629L38.8052 79.5705L38.7928 79.5784L39.3307 80.4214ZM42.5396 81.1834L41.6719 81.6806L41.6854 81.7042L41.7002 81.727L42.5396 81.1834ZM42.8429 83.0452L43.8133 83.2865L43.8136 83.2854L42.8429 83.0452ZM41.7178 84.5982L42.2279 85.4583L42.2388 85.4518L42.2496 85.4451L41.7178 84.5982ZM53.8196 17.7409L53.1535 16.9951L53.1516 16.9967L53.8196 17.7409ZM5.89161 8.97735L4.89161 8.96984V8.97735H5.89161ZM6.8308 17.7409L7.51373 17.0104L7.51363 17.0103L6.8308 17.7409ZM78.356 75.6948L79.0581 76.4069L79.0585 76.4065L78.356 75.6948ZM78.356 56.5328L77.6534 57.2444L77.6539 57.2448L78.356 56.5328ZM58.9216 56.5328L59.6233 57.2453L59.6241 57.2444L58.9216 56.5328ZM87.2587 66.1114H88.2587V66.1107L87.2587 66.1114ZM86.2657 72.0148L87.209 72.3467L87.2093 72.3458L86.2657 72.0148ZM83.3699 77.3154L82.5776 76.7052L82.0378 77.4061L82.6676 78.0273L83.3699 77.3154ZM95.3152 89.0981L94.6129 89.81L94.6131 89.8102L95.3152 89.0981ZM91.9497 92.3247L92.67 91.631L92.6596 91.6202L92.6489 91.6098L91.9497 92.3247ZM79.9995 80.6384L80.6987 79.9235L80.0867 79.325L79.401 79.8374L79.9995 80.6384ZM74.6237 83.4937L74.9473 84.4399L74.9478 84.4397L74.6237 83.4937ZM33.451 63.6034V62.6034C33.0062 62.6034 32.6845 62.4658 32.4165 62.2016L31.7144 62.9137L31.0123 63.6258C31.677 64.2811 32.5131 64.6034 33.451 64.6034V63.6034ZM31.7144 62.9137L32.4165 62.2016C32.1456 61.9345 32.01 61.6206 32.01 61.1918H31.01H30.01C30.01 62.1329 30.3441 62.9669 31.0123 63.6258L31.7144 62.9137ZM31.01 61.1918H32.01C32.01 60.7632 32.1454 60.4524 32.4141 60.1894L31.7144 59.4748L31.0148 58.7603C30.3443 59.4169 30.01 60.2508 30.01 61.1918H31.01ZM31.7144 59.4748L32.4141 60.1894C32.6863 59.9228 33.011 59.7851 33.4558 59.7851V58.7851V57.7851C32.518 57.7851 31.6818 58.1072 31.0148 58.7603L31.7144 59.4748ZM33.4558 58.7851V59.7851H44.1783V58.7851V57.7851H33.4558V58.7851ZM44.1783 58.7851V59.7851C44.6256 59.7851 44.9476 59.9237 45.2151 60.1893L45.9197 59.4797L46.6243 58.77C45.9591 58.1096 45.1202 57.7851 44.1783 57.7851V58.7851ZM45.9197 59.4797L45.2151 60.1893C45.4849 60.4571 45.622 60.7737 45.6241 61.2063L46.6241 61.2015L47.6241 61.1967C47.6196 60.2595 47.2872 59.4282 46.6243 58.77L45.9197 59.4797ZM46.6241 61.2015L45.6241 61.2063C45.6261 61.6311 45.4923 61.9392 45.2225 62.2016L45.9197 62.9185L46.6168 63.6354C47.2927 62.9782 47.6286 62.1416 47.6241 61.1967L46.6241 61.2015ZM45.9197 62.9185L45.2225 62.2016C44.9451 62.4713 44.6185 62.6082 44.1783 62.6082V63.6082V64.6082C45.1142 64.6082 45.9485 64.2853 46.6168 63.6354L45.9197 62.9185ZM44.1783 63.6082L44.1787 62.6082L33.4514 62.6034L33.451 63.6034L33.4505 64.6034L44.1778 64.6082L44.1783 63.6082ZM30.3546 87.8152V86.8152C24.7272 86.8152 19.9635 84.9159 16.0061 81.1091L15.3129 81.8298L14.6196 82.5504C18.9584 86.7242 24.2225 88.8152 30.3546 88.8152V87.8152ZM15.3129 81.8298L16.0061 81.1091C12.0538 77.3071 10.0907 72.6975 10.0907 67.2207H9.09073H8.09073C8.09073 73.2421 10.2758 78.3719 14.6196 82.5504L15.3129 81.8298ZM9.09073 67.2207H10.0907V23.4465H9.09073H8.09073V67.2207H9.09073ZM9.09073 23.4465V22.4465C7.09113 22.4465 5.43167 21.7824 4.05236 20.4507L3.35776 21.1701L2.66316 21.8895C4.42752 23.593 6.59004 24.4465 9.09073 24.4465V23.4465ZM3.35776 21.1701L4.05312 20.4514C2.67912 19.122 2 17.5129 2 15.5608H1H0C0 18.046 0.892716 20.1764 2.6624 21.8887L3.35776 21.1701ZM1 15.5608H2V8.97735H1H0V15.5608H1ZM1 8.97735H2C2 7.0566 2.68193 5.434 4.07942 4.05609L3.37732 3.34401L2.67522 2.63193C0.902956 4.37936 0 6.51232 0 8.97735H1ZM3.37732 3.34401L4.07942 4.05609C5.47735 2.67775 7.12967 2 9.09073 2V1V0C6.60368 0 4.44706 0.884921 2.67522 2.63193L3.37732 3.34401ZM9.09073 1V2H51.5157V1V0H9.09073V1ZM51.5157 1V2C53.5065 2 55.1831 2.68052 56.5998 4.06038L57.2976 3.34401L57.9953 2.62764C56.2031 0.882157 54.0251 0 51.5157 0V1ZM57.2976 3.34401L56.5991 4.05967C58.0119 5.43845 58.6993 7.05999 58.6993 8.97735H59.6993H60.6993C60.6993 6.50894 59.7856 4.37491 57.996 2.62835L57.2976 3.34401ZM59.6993 8.97735H58.6993V15.5608H59.6993H60.6993V8.97735H59.6993ZM59.6993 15.5608H58.6993C58.6993 17.5067 58.0103 19.1139 56.6089 20.445L57.2976 21.1701L57.9863 21.8951C59.7873 20.1845 60.6993 18.0521 60.6993 15.5608H59.6993ZM57.2976 21.1701L56.6104 20.4436C55.1955 21.7819 53.5156 22.4465 51.5157 22.4465V23.4465V24.4465C54.0161 24.4465 56.1908 23.5935 57.9848 21.8965L57.2976 21.1701ZM51.5157 23.4465H50.5157V37.2646H51.5157H52.5157V23.4465H51.5157ZM51.5157 37.2646H50.5157C50.5157 39.1337 49.8519 40.7129 48.4901 42.0557L49.1922 42.7677L49.8943 43.4798C51.6305 41.7679 52.5157 39.6785 52.5157 37.2646H51.5157ZM49.1922 42.7677L48.4901 42.0557C47.1275 43.3991 45.5207 44.0587 43.6157 44.0587V45.0587V46.0587C46.048 46.0587 48.1588 45.191 49.8943 43.4798L49.1922 42.7677ZM43.6157 45.0587V44.0587H33.451V45.0587V46.0587H43.6157V45.0587ZM33.451 45.0587V44.0587C33.0036 44.0587 32.6785 43.92 32.4068 43.6521L31.7047 44.3642L31.0026 45.0763C31.67 45.7344 32.5091 46.0587 33.451 46.0587V45.0587ZM31.7047 44.3642L32.4092 43.6545C32.1407 43.3879 32.0051 43.0733 32.0051 42.6423H31.0051H30.0051C30.0051 43.5811 30.3359 44.4144 31.0001 45.0738L31.7047 44.3642ZM31.0051 42.6423H32.0051C32.0051 42.2114 32.1405 41.8999 32.4068 41.6374L31.7047 40.9253L31.0026 40.2133C30.3361 40.8704 30.0051 41.7035 30.0051 42.6423H31.0051ZM31.7047 40.9253L32.4068 41.6374C32.674 41.3739 32.9999 41.2329 33.4556 41.2308L33.451 40.2308L33.4464 39.2308C32.5062 39.2351 31.6679 39.5572 31.0026 40.2133L31.7047 40.9253ZM33.451 40.2308V41.2308H46.6192V40.2308V39.2308H33.451V40.2308ZM46.6192 40.2308H47.6192V23.4465H46.6192H45.6192V40.2308H46.6192ZM46.6192 23.4465V22.4465H13.9823V23.4465V24.4465H46.6192V23.4465ZM13.9823 23.4465H12.9823V67.2255H13.9823H14.9823V23.4465H13.9823ZM13.9823 67.2255H12.9823C12.9823 71.9461 14.6869 75.9503 18.0773 79.1735L18.7663 78.4488L19.4554 77.724C16.4671 74.8831 14.9823 71.4051 14.9823 67.2255H13.9823ZM18.7663 78.4488L18.0773 79.1735C21.4563 82.3858 25.5735 83.9921 30.3692 83.9921V82.9921V81.9921C26.0666 81.9921 22.4485 80.5695 19.4553 77.724L18.7663 78.4488ZM30.3692 82.9921V83.9921C32.0982 83.9921 33.7616 83.7649 35.3559 83.3069L35.0799 82.3458L34.8038 81.3847C33.3979 81.7885 31.9209 81.9921 30.3692 81.9921V82.9921ZM35.0799 82.3458L35.3573 83.3066C36.9534 82.8457 38.458 82.1644 39.8685 81.2644L39.3307 80.4214L38.7928 79.5784C37.5423 80.3762 36.213 80.9778 34.8025 81.3851L35.0799 82.3458ZM39.3307 80.4214L39.8435 81.2799C40.1815 81.0779 40.5153 81.0231 40.8965 81.1049L41.1063 80.1272L41.3161 79.1495C40.4386 78.9612 39.5886 79.1025 38.8178 79.5629L39.3307 80.4214ZM41.1063 80.1272L40.8965 81.1049C41.2424 81.1792 41.4839 81.3525 41.6719 81.6806L42.5396 81.1834L43.4072 80.6863C42.943 79.8762 42.229 79.3453 41.3161 79.1495L41.1063 80.1272ZM42.5396 81.1834L41.7002 81.727C41.915 82.0587 41.9737 82.3947 41.8721 82.8049L42.8429 83.0452L43.8136 83.2854C44.0447 82.3516 43.9012 81.4464 43.379 80.6399L42.5396 81.1834ZM42.8429 83.0452L41.8724 82.8038C41.7685 83.2216 41.5507 83.5223 41.186 83.7513L41.7178 84.5982L42.2496 85.4451C43.0523 84.941 43.5846 84.2063 43.8133 83.2865L42.8429 83.0452ZM41.7178 84.5982L41.2076 83.7381C39.5906 84.6972 37.8818 85.451 36.0798 86.0001L36.3713 86.9567L36.6627 87.9132C38.6174 87.3176 40.4731 86.4991 42.2279 85.4583L41.7178 84.5982ZM36.3713 86.9567L36.0798 86.0001C34.3038 86.5412 32.3955 86.8152 30.3497 86.8152V87.8152V88.8152C32.5758 88.8152 34.682 88.5168 36.6627 87.9132L36.3713 86.9567ZM9.09073 18.6235V19.6235H51.5157V18.6235V17.6235H9.09073V18.6235ZM51.5157 18.6235V19.6235C52.6429 19.6235 53.6487 19.2381 54.4876 18.485L53.8196 17.7409L53.1516 16.9967C52.6796 17.4205 52.1495 17.6235 51.5157 17.6235V18.6235ZM53.8196 17.7409L54.4858 18.4867C55.3518 17.7131 55.8077 16.7174 55.8077 15.5608H54.8077H53.8077C53.8077 16.1342 53.6049 16.5918 53.1535 16.9951L53.8196 17.7409ZM54.8077 15.5608H55.8077V8.97735H54.8077H53.8077V15.5608H54.8077ZM54.8077 8.97735H55.8077C55.8077 7.82053 55.3548 6.81734 54.5034 6.01944L53.8196 6.74909L53.1358 7.47875C53.6019 7.91555 53.8077 8.39787 53.8077 8.97735H54.8077ZM53.8196 6.74909L54.5034 6.01944C53.6654 5.23401 52.655 4.82306 51.5157 4.82306V5.82306V6.82306C52.1308 6.82306 52.6564 7.02948 53.1358 7.47875L53.8196 6.74909ZM51.5157 5.82306V4.82306H9.09073V5.82306V6.82306H51.5157V5.82306ZM9.09073 5.82306V4.82306C7.94775 4.82306 6.94272 5.23505 6.13174 6.03885L6.83569 6.74909L7.53965 7.45934C7.9744 7.02844 8.47272 6.82306 9.09073 6.82306V5.82306ZM6.83569 6.74909L6.13174 6.03885C5.32339 6.84004 4.90017 7.83455 4.89164 8.96984L5.89161 8.97735L6.89158 8.98486C6.8961 8.38385 7.10226 7.89285 7.53965 7.45934L6.83569 6.74909ZM5.89161 8.97735H4.89161V15.5608H5.89161H6.89161V8.97735H5.89161ZM5.89161 15.5608H4.89161C4.89161 16.7018 5.31656 17.6944 6.14798 18.4714L6.8308 17.7409L7.51363 17.0103C7.09279 16.617 6.89161 16.1561 6.89161 15.5608H5.89161ZM6.8308 17.7409L6.14787 18.4713C6.9662 19.2364 7.96502 19.6235 9.09073 19.6235V18.6235V17.6235C8.46197 17.6235 7.95419 17.4222 7.51373 17.0104L6.8308 17.7409ZM68.6363 79.6545V80.6545C72.6982 80.6545 76.1912 79.2335 79.0581 76.4069L78.356 75.6948L77.6539 74.9827C75.166 77.4357 72.1793 78.6545 68.6363 78.6545V79.6545ZM78.356 75.6948L79.0585 76.4065C81.9224 73.5792 83.3671 70.1286 83.3671 66.1114H82.3671H81.3671C81.3671 69.5924 80.1377 72.5307 77.6534 74.9832L78.356 75.6948ZM82.3671 66.1114H83.3671C83.3671 62.0941 81.9224 58.6449 79.0581 55.8207L78.356 56.5328L77.6539 57.2448C80.1377 59.6939 81.3671 62.6304 81.3671 66.1114H82.3671ZM78.356 56.5328L79.0585 55.8211C76.1918 52.9911 72.6986 51.5682 68.6363 51.5682V52.5682V53.5682C72.1789 53.5682 75.1655 54.7883 77.6534 57.2444L78.356 56.5328ZM68.6363 52.5682V51.5682C64.5771 51.5682 61.0856 52.9913 58.2191 55.8211L58.9216 56.5328L59.6241 57.2444C62.1123 54.7882 65.0973 53.5682 68.6363 53.5682V52.5682ZM58.9216 56.5328L58.2199 55.8203C55.3522 58.6443 53.9056 62.0937 53.9056 66.1114H54.9056H55.9056C55.9056 62.6308 57.1363 59.6944 59.6233 57.2453L58.9216 56.5328ZM54.9056 66.1114H53.9056C53.9056 70.1286 55.3502 73.5792 58.2142 76.4065L58.9167 75.6948L59.6192 74.9832C57.135 72.5307 55.9056 69.5924 55.9056 66.1114H54.9056ZM58.9167 75.6948L58.2142 76.4065C61.0783 79.2339 64.572 80.6531 68.6372 80.6497L68.6363 79.6497L68.6355 78.6497C65.0893 78.6527 62.1033 77.4354 59.6192 74.9832L58.9167 75.6948ZM68.6363 84.4728V83.4728C63.7219 83.4728 59.5779 81.7881 56.1454 78.4068L55.4436 79.1192L54.7419 79.8316C58.5555 83.5884 63.2066 85.4728 68.6363 85.4728V84.4728ZM55.4436 79.1192L56.1454 78.4068C52.714 75.0265 51.0109 70.9478 51.014 66.112L50.014 66.1114L49.014 66.1107C49.0105 71.4806 50.9271 76.0737 54.7419 79.8316L55.4436 79.1192ZM50.014 66.1114L51.014 66.112C51.0171 61.2752 52.7207 57.1958 56.1461 53.8153L55.4436 53.1036L54.7412 52.3918C50.9335 56.1495 49.0174 60.7419 49.014 66.1107L50.014 66.1114ZM55.4436 53.1036L56.1461 53.8153C59.5715 50.4349 63.715 48.75 68.6363 48.75V47.75V46.75C63.2005 46.75 58.5489 48.6341 54.7412 52.3918L55.4436 53.1036ZM68.6363 47.75V48.75C73.5576 48.75 77.7012 50.4349 81.1266 53.8153L81.829 53.1036L82.5314 52.3918C78.7238 48.6341 74.0722 46.75 68.6363 46.75V47.75ZM81.829 53.1036L81.1266 53.8153C84.552 57.1958 86.2556 61.2752 86.2587 66.112L87.2587 66.1114L88.2587 66.1107C88.2553 60.7419 86.3391 56.1495 82.5314 52.3918L81.829 53.1036ZM87.2587 66.1114H86.2587C86.2587 68.0496 85.9459 69.9053 85.3221 71.6838L86.2657 72.0148L87.2093 72.3458C87.9095 70.3494 88.2587 68.2695 88.2587 66.1114H87.2587ZM86.2657 72.0148L85.3224 71.6829C84.6936 73.4699 83.7803 75.1433 82.5776 76.7052L83.3699 77.3154L84.1622 77.9255C85.49 76.2012 86.5073 74.341 87.209 72.3467L86.2657 72.0148ZM83.3699 77.3154L82.6676 78.0273L94.6129 89.81L95.3152 89.0981L96.0174 88.3862L84.0721 76.6034L83.3699 77.3154ZM95.3152 89.0981L94.6131 89.8102C94.885 90.0783 95 90.3611 95 90.709H96H97C97 89.8093 96.6585 89.0182 96.0173 88.386L95.3152 89.0981ZM96 90.709H95C95 91.0571 94.8847 91.3429 94.6105 91.6152L95.3152 92.3247L96.0198 93.0343C96.6588 92.3998 97 91.6085 97 90.709H96ZM95.3152 92.3247L94.6105 91.6152C94.3536 91.8703 94.0463 92.002 93.6176 92L93.6129 93L93.6082 94C94.5361 94.0043 95.3637 93.6859 96.0198 93.0343L95.3152 92.3247ZM93.6129 93L93.6176 92C93.1816 91.9979 92.8947 91.8643 92.67 91.631L91.9497 92.3247L91.2295 93.0184C91.8658 93.6791 92.6876 93.9956 93.6082 94L93.6129 93ZM91.9497 92.3247L92.6489 91.6098L80.6987 79.9235L79.9995 80.6384L79.3004 81.3534L91.2506 93.0397L91.9497 92.3247ZM79.9995 80.6384L79.401 79.8374C77.8121 81.0245 76.1124 81.9265 74.2995 82.5477L74.6237 83.4937L74.9478 84.4397C76.9635 83.749 78.8476 82.7475 80.5981 81.4395L79.9995 80.6384ZM74.6237 83.4937L74.3 82.5475C72.4891 83.167 70.6029 83.4776 68.6363 83.4776V84.4776V85.4776C70.8179 85.4776 72.9232 85.1323 74.9473 84.4399L74.6237 83.4937Z" fill="#071952" mask="url(#path-1-outside-1_32_23)"/>
</svg>
