<svg width="102" height="102" viewBox="0 0 102 102" fill="none" xmlns="http://www.w3.org/2000/svg">
<path d="M55.6908 27.5003L35.4876 7.29714C33.3657 5.18547 30.4939 4 27.5003 4C24.5067 4 21.6349 5.18547 19.513 7.29714L7.29714 19.513C5.18547 21.6349 4 24.5067 4 27.5003C4 30.4939 5.18547 33.3657 7.29714 35.4876L27.5003 55.6908M32.1987 22.8019L41.5956 13.4051M79.1829 69.786L88.5797 60.3892M74.4844 46.294L94.6876 66.4971C99.1041 70.9137 99.1041 78.0552 94.6876 82.4718L82.4718 94.6876C78.0552 99.1041 70.9137 99.1041 66.4971 94.6876L46.294 74.4844M65.0876 18.1035L83.8813 36.8971M94.0956 26.617C96.5797 24.1335 97.9755 20.765 97.976 17.2524C97.9764 13.7398 96.5814 10.3709 94.098 7.88679C91.6145 5.40269 88.2459 4.0069 84.7333 4.00646C81.2207 4.00602 77.8518 5.40097 75.3677 7.88444L12.6627 70.6036C11.5718 71.6912 10.7651 73.0304 10.3135 74.5032L4.10691 94.9507C3.98548 95.3571 3.97631 95.7887 4.08037 96.1998C4.18443 96.6109 4.39784 96.9862 4.69796 97.2859C4.99807 97.5855 5.3737 97.7983 5.78499 97.9017C6.19628 98.0051 6.62789 97.9952 7.03403 97.8731L27.4862 91.6712C28.9576 91.2237 30.2967 90.4219 31.3859 89.3361L94.0956 26.617Z" stroke="#071952" stroke-width="7" stroke-linecap="round" stroke-linejoin="round"/>
</svg>
