<svg width="608" height="608" viewBox="0 0 608 608" fill="none" xmlns="http://www.w3.org/2000/svg">
<path d="M161.981 91C146.87 90.9957 132.03 95.0092 118.982 102.629C105.933 110.249 95.1461 121.201 87.726 134.363C80.306 147.525 76.5198 162.423 76.7557 177.53C76.9917 192.637 81.2411 207.41 89.0686 220.334C69.6273 224.09 52.1003 234.496 39.4969 249.766C26.8935 265.035 20 284.216 20 304.014C20 323.812 26.8935 342.993 39.4969 358.263C52.1003 373.533 69.6273 383.939 89.0686 387.695M161.981 91C161.981 72.1696 169.462 54.1105 182.779 40.7954C196.096 27.4803 214.158 20 232.991 20C251.823 20 269.885 27.4803 283.202 40.7954C296.519 54.1105 304 72.1696 304 91C304 72.1696 311.481 54.1105 324.798 40.7954C338.115 27.4803 356.177 20 375.009 20C393.842 20 411.904 27.4803 425.221 40.7954C438.538 54.1105 446.019 72.1696 446.019 91C461.13 90.9957 475.97 95.0092 489.018 102.629C502.067 110.249 512.854 121.201 520.274 134.363C527.694 147.525 531.48 162.423 531.244 177.53C531.008 192.637 526.759 207.41 518.931 220.334M161.981 91C161.981 114.231 173.144 134.85 190.385 147.8M89.0686 387.695C81.2484 400.618 77.0048 415.388 76.7726 430.49C76.5404 445.593 80.328 460.486 87.7472 473.644C95.1664 486.801 105.951 497.75 118.995 505.368C132.039 512.987 146.874 517.001 161.981 517C161.981 535.83 169.462 553.89 182.779 567.205C196.096 580.52 214.158 588 232.991 588C251.823 588 269.885 580.52 283.202 567.205C296.519 553.89 304 535.83 304 517C304 535.83 311.481 553.89 324.798 567.205C338.115 580.52 356.177 588 375.009 588C393.842 588 411.904 580.52 425.221 567.205C438.538 553.89 446.019 535.83 446.019 517M89.0686 387.695C99.262 370.822 114.992 358.005 133.577 351.428M446.019 517C461.126 517.001 475.961 512.987 489.005 505.368C502.049 497.75 512.834 486.801 520.253 473.644C527.672 460.486 531.46 445.593 531.227 430.49C530.995 415.388 526.752 400.618 518.931 387.695C538.373 383.939 555.9 373.533 568.503 358.263C581.106 342.993 588 323.812 588 304.014C588 284.216 581.106 265.035 568.503 249.766C555.9 234.496 538.373 224.09 518.931 220.334M446.019 517C446.019 493.769 434.856 473.15 417.615 460.2M518.931 220.334C508.728 237.185 492.999 249.981 474.423 256.544" stroke="#071952" stroke-width="40" stroke-linecap="round" stroke-linejoin="round"/>
<path d="M357.333 309.492C357.333 300.302 349.871 292.852 340.667 292.852H267.333C258.129 292.852 250.667 300.302 250.667 309.492V362.738C250.667 371.927 258.129 379.377 267.333 379.377H340.667C349.871 379.377 357.333 371.927 357.333 362.738V309.492ZM384 362.738C384 386.631 364.599 406 340.667 406H267.333C243.401 406 224 386.631 224 362.738V309.492C224 285.599 243.401 266.23 267.333 266.23H340.667C364.599 266.23 384 285.599 384 309.492V362.738Z" fill="#37B7C3"/>
<path d="M330.667 254.582C330.667 240.797 319.474 229.623 305.667 229.623C291.86 229.623 280.667 240.797 280.667 254.582V282.869H254V254.582C254 226.094 277.132 203 305.667 203C334.201 203 357.333 226.094 357.333 254.582V282.869H330.667V254.582Z" fill="#37B7C3"/>
<path d="M324 336.115C324 347.142 315.046 356.082 304 356.082C292.954 356.082 284 347.142 284 336.115C284 325.087 292.954 316.148 304 316.148C315.046 316.148 324 325.087 324 336.115Z" fill="#37B7C3"/>
</svg>
